G04 #@! TF.GenerationSoftware,KiCad,Pcbnew,(5.99.0-13294-g19fc8c6d98)*
G04 #@! TF.CreationDate,2021-12-07T19:06:38+01:00*
G04 #@! TF.ProjectId,easycomm,65617379-636f-46d6-9d2e-6b696361645f,rev?*
G04 #@! TF.SameCoordinates,Original*
G04 #@! TF.FileFunction,Soldermask,Top*
G04 #@! TF.FilePolarity,Negative*
%FSLAX46Y46*%
G04 Gerber Fmt 4.6, Leading zero omitted, Abs format (unit mm)*
G04 Created by KiCad (PCBNEW (5.99.0-13294-g19fc8c6d98)) date 2021-12-07 19:06:38*
%MOMM*%
%LPD*%
G01*
G04 APERTURE LIST*
G04 Aperture macros list*
%AMRoundRect*
0 Rectangle with rounded corners*
0 $1 Rounding radius*
0 $2 $3 $4 $5 $6 $7 $8 $9 X,Y pos of 4 corners*
0 Add a 4 corners polygon primitive as box body*
4,1,4,$2,$3,$4,$5,$6,$7,$8,$9,$2,$3,0*
0 Add four circle primitives for the rounded corners*
1,1,$1+$1,$2,$3*
1,1,$1+$1,$4,$5*
1,1,$1+$1,$6,$7*
1,1,$1+$1,$8,$9*
0 Add four rect primitives between the rounded corners*
20,1,$1+$1,$2,$3,$4,$5,0*
20,1,$1+$1,$4,$5,$6,$7,0*
20,1,$1+$1,$6,$7,$8,$9,0*
20,1,$1+$1,$8,$9,$2,$3,0*%
G04 Aperture macros list end*
%ADD10RoundRect,0.237500X-0.250000X-0.237500X0.250000X-0.237500X0.250000X0.237500X-0.250000X0.237500X0*%
%ADD11C,3.200000*%
%ADD12R,1.700000X1.700000*%
%ADD13O,1.700000X1.700000*%
%ADD14RoundRect,0.237500X0.250000X0.237500X-0.250000X0.237500X-0.250000X-0.237500X0.250000X-0.237500X0*%
%ADD15RoundRect,0.237500X0.287500X0.237500X-0.287500X0.237500X-0.287500X-0.237500X0.287500X-0.237500X0*%
%ADD16R,1.000000X1.000000*%
%ADD17C,1.700000*%
%ADD18R,0.700000X0.700000*%
%ADD19R,2.200000X2.000000*%
%ADD20C,2.200000*%
G04 APERTURE END LIST*
D10*
G04 #@! TO.C,R3*
X108675000Y-57870000D03*
X110500000Y-57870000D03*
G04 #@! TD*
D11*
G04 #@! TO.C,H4*
X164000000Y-121000000D03*
G04 #@! TD*
D12*
G04 #@! TO.C,J2*
X108250000Y-76030000D03*
D13*
X110790000Y-76030000D03*
X108250000Y-78570000D03*
X110790000Y-78570000D03*
X108250000Y-81110000D03*
X110790000Y-81110000D03*
X108250000Y-83650000D03*
X110790000Y-83650000D03*
X108250000Y-86190000D03*
X110790000Y-86190000D03*
X108250000Y-88730000D03*
X110790000Y-88730000D03*
X108250000Y-91270000D03*
X110790000Y-91270000D03*
X108250000Y-93810000D03*
X110790000Y-93810000D03*
X108250000Y-96350000D03*
X110790000Y-96350000D03*
X108250000Y-98890000D03*
X110790000Y-98890000D03*
X108250000Y-101430000D03*
X110790000Y-101430000D03*
X108250000Y-103970000D03*
X110790000Y-103970000D03*
X108250000Y-106510000D03*
X110790000Y-106510000D03*
X108250000Y-109050000D03*
X110790000Y-109050000D03*
X108250000Y-111590000D03*
X110790000Y-111590000D03*
X108250000Y-114130000D03*
X110790000Y-114130000D03*
X108250000Y-116670000D03*
X110790000Y-116670000D03*
X108250000Y-119210000D03*
X110790000Y-119210000D03*
X108250000Y-121750000D03*
X110790000Y-121750000D03*
G04 #@! TD*
D12*
G04 #@! TO.C,BUZZ*
X121100000Y-81760000D03*
G04 #@! TD*
D14*
G04 #@! TO.C,R4*
X137417500Y-119200000D03*
X135592500Y-119200000D03*
G04 #@! TD*
D15*
G04 #@! TO.C,STATE2*
X142705000Y-122000000D03*
X140955000Y-122000000D03*
G04 #@! TD*
D12*
G04 #@! TO.C,PA11*
X148942000Y-79280000D03*
G04 #@! TD*
G04 #@! TO.C,PC8*
X151482000Y-79280000D03*
G04 #@! TD*
G04 #@! TO.C,PC6*
X151482000Y-81820000D03*
G04 #@! TD*
D10*
G04 #@! TO.C,R1*
X108675000Y-69300000D03*
X110500000Y-69300000D03*
G04 #@! TD*
D12*
G04 #@! TO.C,PA15*
X127540000Y-89340000D03*
G04 #@! TD*
D15*
G04 #@! TO.C,STATE1*
X137380000Y-122000000D03*
X135630000Y-122000000D03*
G04 #@! TD*
D11*
G04 #@! TO.C,H3*
X115500000Y-121000000D03*
G04 #@! TD*
D12*
G04 #@! TO.C,J8*
X130340000Y-120300000D03*
G04 #@! TD*
D11*
G04 #@! TO.C,H2*
X171000000Y-71500000D03*
G04 #@! TD*
D16*
G04 #@! TO.C,Q1*
X108587500Y-53790000D03*
X110587500Y-53790000D03*
X109587500Y-51890000D03*
G04 #@! TD*
D12*
G04 #@! TO.C,SX2*
X157070000Y-121825000D03*
G04 #@! TD*
G04 #@! TO.C,GND*
X121100000Y-84300000D03*
G04 #@! TD*
G04 #@! TO.C,PB4*
X151990000Y-121825000D03*
G04 #@! TD*
D17*
G04 #@! TO.C,U3*
X165550000Y-66550000D03*
X165550000Y-64010000D03*
X165550000Y-61470000D03*
X165550000Y-58930000D03*
X165550000Y-56390000D03*
X165550000Y-53850000D03*
X152850000Y-64010000D03*
X152850000Y-61470000D03*
X152850000Y-58930000D03*
X152850000Y-56390000D03*
G04 #@! TD*
G04 #@! TO.C,U2*
X143100000Y-115156000D03*
X145640000Y-115156000D03*
X148180000Y-115156000D03*
X150720000Y-115156000D03*
X153260000Y-115156000D03*
X155800000Y-115156000D03*
X158340000Y-115156000D03*
X160880000Y-115156000D03*
X163420000Y-115156000D03*
X143100000Y-85884000D03*
X163420000Y-85884000D03*
G04 #@! TD*
D12*
G04 #@! TO.C,SX3*
X159610000Y-121825000D03*
G04 #@! TD*
G04 #@! TO.C,3V3*
X121100000Y-89380000D03*
G04 #@! TD*
D18*
G04 #@! TO.C,D1*
X110637500Y-61680000D03*
X108437500Y-61680000D03*
G04 #@! TD*
D12*
G04 #@! TO.C,J1*
X169210000Y-76030000D03*
D13*
X171750000Y-76030000D03*
X169210000Y-78570000D03*
X171750000Y-78570000D03*
X169210000Y-81110000D03*
X171750000Y-81110000D03*
X169210000Y-83650000D03*
X171750000Y-83650000D03*
X169210000Y-86190000D03*
X171750000Y-86190000D03*
X169210000Y-88730000D03*
X171750000Y-88730000D03*
X169210000Y-91270000D03*
X171750000Y-91270000D03*
X169210000Y-93810000D03*
X171750000Y-93810000D03*
X169210000Y-96350000D03*
X171750000Y-96350000D03*
X169210000Y-98890000D03*
X171750000Y-98890000D03*
X169210000Y-101430000D03*
X171750000Y-101430000D03*
X169210000Y-103970000D03*
X171750000Y-103970000D03*
X169210000Y-106510000D03*
X171750000Y-106510000D03*
X169210000Y-109050000D03*
X171750000Y-109050000D03*
X169210000Y-111590000D03*
X171750000Y-111590000D03*
X169210000Y-114130000D03*
X171750000Y-114130000D03*
X169210000Y-116670000D03*
X171750000Y-116670000D03*
X169210000Y-119210000D03*
X171750000Y-119210000D03*
X169210000Y-121750000D03*
X171750000Y-121750000D03*
G04 #@! TD*
D12*
G04 #@! TO.C,5V*
X121100000Y-86840000D03*
G04 #@! TD*
G04 #@! TO.C,J7*
X127800000Y-120300000D03*
G04 #@! TD*
D14*
G04 #@! TO.C,R2*
X110500000Y-65490000D03*
X108675000Y-65490000D03*
G04 #@! TD*
D11*
G04 #@! TO.C,H1*
X115500000Y-76000000D03*
G04 #@! TD*
D17*
G04 #@! TO.C,U1*
X115160000Y-114840000D03*
X117700000Y-114840000D03*
X120240000Y-114840000D03*
X122780000Y-114840000D03*
X125320000Y-114840000D03*
X127860000Y-114840000D03*
X130400000Y-114840000D03*
X132940000Y-114840000D03*
X135480000Y-114840000D03*
X116430000Y-94520000D03*
X134210000Y-94520000D03*
G04 #@! TD*
D12*
G04 #@! TO.C,PA0*
X127540000Y-86800000D03*
G04 #@! TD*
D10*
G04 #@! TO.C,R5*
X140917500Y-119200000D03*
X142742500Y-119200000D03*
G04 #@! TD*
D12*
G04 #@! TO.C,DX4*
X125000000Y-86800000D03*
G04 #@! TD*
D19*
G04 #@! TO.C,BZ1*
X118200000Y-63350000D03*
D20*
X143600000Y-63350000D03*
G04 #@! TD*
D12*
G04 #@! TO.C,PA12*
X148942000Y-81820000D03*
G04 #@! TD*
G04 #@! TO.C,PB14*
X154530000Y-121825000D03*
G04 #@! TD*
G04 #@! TO.C,DX5*
X125000000Y-89340000D03*
G04 #@! TD*
M02*
