M48
; DRILL file {KiCad (5.99.0-13294-g19fc8c6d98)} date Tue 07 Dec 2021 07:07:43 PM CET
; FORMAT={-:-/ absolute / inch / decimal}
; #@! TF.CreationDate,2021-12-07T19:07:43+01:00
; #@! TF.GenerationSoftware,Kicad,Pcbnew,(5.99.0-13294-g19fc8c6d98)
; #@! TF.FileFunction,MixedPlating,1,4
FMAT,2
INCH
; #@! TA.AperFunction,Plated,PTH,ViaDrill
T1C0.0160
; #@! TA.AperFunction,Plated,PTH,ViaDrill
T2C0.0200
; #@! TA.AperFunction,Plated,PTH,ViaDrill
T3C0.0300
; #@! TA.AperFunction,Plated,PTH,ComponentDrill
T4C0.0394
; #@! TA.AperFunction,Plated,PTH,ComponentDrill
T5C0.0472
; #@! TA.AperFunction,NonPlated,NPTH,ComponentDrill
T6C0.1260
%
G90
G05
T1
X4.5039Y-3.1929
X4.6535Y-4.6575
X4.7165Y-3.5945
X4.7874Y-3.6378
X4.8031Y-3.8976
T2
X4.437Y-2.1732
X4.4921Y-2.2047
X5.0984Y-3.8858
X5.2323Y-4.1772
X5.3543Y-3.8858
X5.3543Y-3.9606
X5.437Y-4.2913
X5.4764Y-4.7402
X5.685Y-4.7402
X5.7638Y-4.2598
X5.7677Y-3.0197
X5.8268Y-4.2598
X5.9409Y-4.122
T3
X4.4528Y-3.3937
T4
X4.2618Y-2.9933
X4.2618Y-3.0933
X4.2618Y-3.1933
X4.2618Y-3.2933
X4.2618Y-3.3933
X4.2618Y-3.4933
X4.2618Y-3.5933
X4.2618Y-3.6933
X4.2618Y-3.7933
X4.2618Y-3.8933
X4.2618Y-3.9933
X4.2618Y-4.0933
X4.2618Y-4.1933
X4.2618Y-4.2933
X4.2618Y-4.3933
X4.2618Y-4.4933
X4.2618Y-4.5933
X4.2618Y-4.6933
X4.2618Y-4.7933
X4.3618Y-2.9933
X4.3618Y-3.0933
X4.3618Y-3.1933
X4.3618Y-3.2933
X4.3618Y-3.3933
X4.3618Y-3.4933
X4.3618Y-3.5933
X4.3618Y-3.6933
X4.3618Y-3.7933
X4.3618Y-3.8933
X4.3618Y-3.9933
X4.3618Y-4.0933
X4.3618Y-4.1933
X4.3618Y-4.2933
X4.3618Y-4.3933
X4.3618Y-4.4933
X4.3618Y-4.5933
X4.3618Y-4.6933
X4.3618Y-4.7933
X4.5339Y-4.5213
X4.5839Y-3.7213
X4.6339Y-4.5213
X4.7339Y-4.5213
X4.7677Y-3.2189
X4.7677Y-3.3189
X4.7677Y-3.4189
X4.7677Y-3.5189
X4.8339Y-4.5213
X4.9213Y-3.4173
X4.9213Y-3.5173
X4.9339Y-4.5213
X5.0213Y-3.4173
X5.0213Y-3.5173
X5.0315Y-4.7362
X5.0339Y-4.5213
X5.1315Y-4.7362
X5.1339Y-4.5213
X5.2339Y-4.5213
X5.2839Y-3.7213
X5.3339Y-4.5213
X5.6339Y-3.3813
X5.6339Y-4.5337
X5.7339Y-4.5337
X5.8339Y-4.5337
X5.8639Y-3.1213
X5.8639Y-3.2213
X5.9339Y-4.5337
X5.9639Y-3.1213
X5.9639Y-3.2213
X5.9839Y-4.7963
X6.0177Y-2.2201
X6.0177Y-2.3201
X6.0177Y-2.4201
X6.0177Y-2.5201
X6.0339Y-4.5337
X6.0839Y-4.7963
X6.1339Y-4.5337
X6.1839Y-4.7963
X6.2339Y-4.5337
X6.2839Y-4.7963
X6.3339Y-4.5337
X6.4339Y-3.3813
X6.4339Y-4.5337
X6.5177Y-2.1201
X6.5177Y-2.2201
X6.5177Y-2.3201
X6.5177Y-2.4201
X6.5177Y-2.5201
X6.5177Y-2.6201
X6.6618Y-2.9933
X6.6618Y-3.0933
X6.6618Y-3.1933
X6.6618Y-3.2933
X6.6618Y-3.3933
X6.6618Y-3.4933
X6.6618Y-3.5933
X6.6618Y-3.6933
X6.6618Y-3.7933
X6.6618Y-3.8933
X6.6618Y-3.9933
X6.6618Y-4.0933
X6.6618Y-4.1933
X6.6618Y-4.2933
X6.6618Y-4.3933
X6.6618Y-4.4933
X6.6618Y-4.5933
X6.6618Y-4.6933
X6.6618Y-4.7933
X6.7618Y-2.9933
X6.7618Y-3.0933
X6.7618Y-3.1933
X6.7618Y-3.2933
X6.7618Y-3.3933
X6.7618Y-3.4933
X6.7618Y-3.5933
X6.7618Y-3.6933
X6.7618Y-3.7933
X6.7618Y-3.8933
X6.7618Y-3.9933
X6.7618Y-4.0933
X6.7618Y-4.1933
X6.7618Y-4.2933
X6.7618Y-4.3933
X6.7618Y-4.4933
X6.7618Y-4.5933
X6.7618Y-4.6933
X6.7618Y-4.7933
T5
X4.6535Y-2.4941
X5.6535Y-2.4941
T6
X4.5472Y-2.9921
X4.5472Y-4.7638
X6.4567Y-4.7638
X6.7323Y-2.815
T0
M30
