G04 #@! TF.GenerationSoftware,KiCad,Pcbnew,(5.99.0-13294-g19fc8c6d98)*
G04 #@! TF.CreationDate,2021-12-07T19:06:38+01:00*
G04 #@! TF.ProjectId,easycomm,65617379-636f-46d6-9d2e-6b696361645f,rev?*
G04 #@! TF.SameCoordinates,Original*
G04 #@! TF.FileFunction,Copper,L4,Bot*
G04 #@! TF.FilePolarity,Positive*
%FSLAX46Y46*%
G04 Gerber Fmt 4.6, Leading zero omitted, Abs format (unit mm)*
G04 Created by KiCad (PCBNEW (5.99.0-13294-g19fc8c6d98)) date 2021-12-07 19:06:38*
%MOMM*%
%LPD*%
G01*
G04 APERTURE LIST*
G04 Aperture macros list*
%AMRoundRect*
0 Rectangle with rounded corners*
0 $1 Rounding radius*
0 $2 $3 $4 $5 $6 $7 $8 $9 X,Y pos of 4 corners*
0 Add a 4 corners polygon primitive as box body*
4,1,4,$2,$3,$4,$5,$6,$7,$8,$9,$2,$3,0*
0 Add four circle primitives for the rounded corners*
1,1,$1+$1,$2,$3*
1,1,$1+$1,$4,$5*
1,1,$1+$1,$6,$7*
1,1,$1+$1,$8,$9*
0 Add four rect primitives between the rounded corners*
20,1,$1+$1,$2,$3,$4,$5,0*
20,1,$1+$1,$4,$5,$6,$7,0*
20,1,$1+$1,$6,$7,$8,$9,0*
20,1,$1+$1,$8,$9,$2,$3,0*%
G04 Aperture macros list end*
G04 #@! TA.AperFunction,ComponentPad*
%ADD10R,1.700000X1.700000*%
G04 #@! TD*
G04 #@! TA.AperFunction,ComponentPad*
%ADD11O,1.700000X1.700000*%
G04 #@! TD*
G04 #@! TA.AperFunction,ComponentPad*
%ADD12C,1.700000*%
G04 #@! TD*
G04 #@! TA.AperFunction,ComponentPad*
%ADD13R,2.200000X2.000000*%
G04 #@! TD*
G04 #@! TA.AperFunction,ComponentPad*
%ADD14C,2.200000*%
G04 #@! TD*
G04 #@! TA.AperFunction,SMDPad,CuDef*
%ADD15RoundRect,0.150000X0.250000X0.150000X-0.250000X0.150000X-0.250000X-0.150000X0.250000X-0.150000X0*%
G04 #@! TD*
G04 #@! TA.AperFunction,SMDPad,CuDef*
%ADD16R,3.400000X4.300000*%
G04 #@! TD*
G04 #@! TA.AperFunction,SMDPad,CuDef*
%ADD17RoundRect,0.237500X0.300000X0.237500X-0.300000X0.237500X-0.300000X-0.237500X0.300000X-0.237500X0*%
G04 #@! TD*
G04 #@! TA.AperFunction,ViaPad*
%ADD18C,0.762000*%
G04 #@! TD*
G04 #@! TA.AperFunction,ViaPad*
%ADD19C,1.524000*%
G04 #@! TD*
G04 #@! TA.AperFunction,ViaPad*
%ADD20C,1.016000*%
G04 #@! TD*
G04 #@! TA.AperFunction,Conductor*
%ADD21C,0.254000*%
G04 #@! TD*
G04 APERTURE END LIST*
D10*
G04 #@! TO.P,J2,1,Pin_1*
G04 #@! TO.N,/FLASH_IO1*
X108250000Y-76030000D03*
D11*
G04 #@! TO.P,J2,2,Pin_2*
G04 #@! TO.N,/BLE_IRQ*
X110790000Y-76030000D03*
G04 #@! TO.P,J2,3,Pin_3*
G04 #@! TO.N,/LED_STATUS1*
X108250000Y-78570000D03*
G04 #@! TO.P,J2,4,Pin_4*
G04 #@! TO.N,/BLE_RST*
X110790000Y-78570000D03*
G04 #@! TO.P,J2,5,Pin_5*
G04 #@! TO.N,unconnected-(J2-Pad5)*
X108250000Y-81110000D03*
G04 #@! TO.P,J2,6,Pin_6*
G04 #@! TO.N,+5V*
X110790000Y-81110000D03*
G04 #@! TO.P,J2,7,Pin_7*
G04 #@! TO.N,unconnected-(J2-Pad7)*
X108250000Y-83650000D03*
G04 #@! TO.P,J2,8,Pin_8*
G04 #@! TO.N,GND*
X110790000Y-83650000D03*
G04 #@! TO.P,J2,9,Pin_9*
G04 #@! TO.N,/XTRA4_D*
X108250000Y-86190000D03*
G04 #@! TO.P,J2,10,Pin_10*
G04 #@! TO.N,+3V3*
X110790000Y-86190000D03*
G04 #@! TO.P,J2,11,Pin_11*
G04 #@! TO.N,/XTRA5_D*
X108250000Y-88730000D03*
G04 #@! TO.P,J2,12,Pin_12*
G04 #@! TO.N,unconnected-(J2-Pad12)*
X110790000Y-88730000D03*
G04 #@! TO.P,J2,13,Pin_13*
G04 #@! TO.N,unconnected-(J2-Pad13)*
X108250000Y-91270000D03*
G04 #@! TO.P,J2,14,Pin_14*
G04 #@! TO.N,unconnected-(J2-Pad14)*
X110790000Y-91270000D03*
G04 #@! TO.P,J2,15,Pin_15*
G04 #@! TO.N,unconnected-(J2-Pad15)*
X108250000Y-93810000D03*
G04 #@! TO.P,J2,16,Pin_16*
G04 #@! TO.N,unconnected-(J2-Pad16)*
X110790000Y-93810000D03*
G04 #@! TO.P,J2,17,Pin_17*
G04 #@! TO.N,/PA15*
X108250000Y-96350000D03*
G04 #@! TO.P,J2,18,Pin_18*
G04 #@! TO.N,unconnected-(J2-Pad18)*
X110790000Y-96350000D03*
G04 #@! TO.P,J2,19,Pin_19*
G04 #@! TO.N,GND*
X108250000Y-98890000D03*
G04 #@! TO.P,J2,20,Pin_20*
X110790000Y-98890000D03*
G04 #@! TO.P,J2,21,Pin_21*
G04 #@! TO.N,/BUZZ*
X108250000Y-101430000D03*
G04 #@! TO.P,J2,22,Pin_22*
G04 #@! TO.N,GND*
X110790000Y-101430000D03*
G04 #@! TO.P,J2,23,Pin_23*
G04 #@! TO.N,unconnected-(J2-Pad23)*
X108250000Y-103970000D03*
G04 #@! TO.P,J2,24,Pin_24*
G04 #@! TO.N,unconnected-(J2-Pad24)*
X110790000Y-103970000D03*
G04 #@! TO.P,J2,25,Pin_25*
G04 #@! TO.N,unconnected-(J2-Pad25)*
X108250000Y-106510000D03*
G04 #@! TO.P,J2,26,Pin_26*
G04 #@! TO.N,unconnected-(J2-Pad26)*
X110790000Y-106510000D03*
G04 #@! TO.P,J2,27,Pin_27*
G04 #@! TO.N,unconnected-(J2-Pad27)*
X108250000Y-109050000D03*
G04 #@! TO.P,J2,28,Pin_28*
G04 #@! TO.N,/PA0*
X110790000Y-109050000D03*
G04 #@! TO.P,J2,29,Pin_29*
G04 #@! TO.N,unconnected-(J2-Pad29)*
X108250000Y-111590000D03*
G04 #@! TO.P,J2,30,Pin_30*
G04 #@! TO.N,/FLASH_RESET*
X110790000Y-111590000D03*
G04 #@! TO.P,J2,31,Pin_31*
G04 #@! TO.N,unconnected-(J2-Pad31)*
X108250000Y-114130000D03*
G04 #@! TO.P,J2,32,Pin_32*
G04 #@! TO.N,unconnected-(J2-Pad32)*
X110790000Y-114130000D03*
G04 #@! TO.P,J2,33,Pin_33*
G04 #@! TO.N,/VBAT*
X108250000Y-116670000D03*
G04 #@! TO.P,J2,34,Pin_34*
G04 #@! TO.N,/PPS*
X110790000Y-116670000D03*
G04 #@! TO.P,J2,35,Pin_35*
G04 #@! TO.N,/BLE_MISO*
X108250000Y-119210000D03*
G04 #@! TO.P,J2,36,Pin_36*
G04 #@! TO.N,/GPS_ENABLE*
X110790000Y-119210000D03*
G04 #@! TO.P,J2,37,Pin_37*
G04 #@! TO.N,/BLE_MOSI*
X108250000Y-121750000D03*
G04 #@! TO.P,J2,38,Pin_38*
G04 #@! TO.N,unconnected-(J2-Pad38)*
X110790000Y-121750000D03*
G04 #@! TD*
D10*
G04 #@! TO.P,BUZZ,1,1*
G04 #@! TO.N,/BUZZ*
X121100000Y-81760000D03*
G04 #@! TD*
G04 #@! TO.P,PA11,1,Pin_1*
G04 #@! TO.N,/PA11*
X148942000Y-79280000D03*
G04 #@! TD*
G04 #@! TO.P,PC8,1,Pin_1*
G04 #@! TO.N,/PC8*
X151482000Y-79280000D03*
G04 #@! TD*
G04 #@! TO.P,PC6,1,Pin_1*
G04 #@! TO.N,/PC6*
X151482000Y-81820000D03*
G04 #@! TD*
G04 #@! TO.P,PA15,1,Pin_1*
G04 #@! TO.N,/PA15*
X127540000Y-89340000D03*
G04 #@! TD*
G04 #@! TO.P,J8,1,Pin_1*
G04 #@! TO.N,GND*
X130340000Y-120300000D03*
G04 #@! TD*
G04 #@! TO.P,SX2,1,Pin_1*
G04 #@! TO.N,/S_XTRA2*
X157070000Y-121825000D03*
G04 #@! TD*
G04 #@! TO.P,GND,1,1*
G04 #@! TO.N,GND*
X121100000Y-84300000D03*
G04 #@! TD*
G04 #@! TO.P,PB4,1,Pin_1*
G04 #@! TO.N,/PB4*
X151990000Y-121825000D03*
G04 #@! TD*
D12*
G04 #@! TO.P,U3,1,Vin*
G04 #@! TO.N,+3V3*
X165550000Y-66550000D03*
G04 #@! TO.P,U3,2,Vout*
G04 #@! TO.N,unconnected-(U3-Pad2)*
X165550000Y-64010000D03*
G04 #@! TO.P,U3,3,GND*
G04 #@! TO.N,GND*
X165550000Y-61470000D03*
G04 #@! TO.P,U3,4,SCL*
G04 #@! TO.N,/IMU_SCL*
X165550000Y-58930000D03*
G04 #@! TO.P,U3,5,SDA*
G04 #@! TO.N,/IMU_SDA*
X165550000Y-56390000D03*
G04 #@! TO.P,U3,6,INTM*
G04 #@! TO.N,/INTM*
X165550000Y-53850000D03*
G04 #@! TO.P,U3,7,DRDY*
G04 #@! TO.N,unconnected-(U3-Pad7)*
X152850000Y-64010000D03*
G04 #@! TO.P,U3,8,ADM*
G04 #@! TO.N,unconnected-(U3-Pad8)*
X152850000Y-61470000D03*
G04 #@! TO.P,U3,9,INT1*
G04 #@! TO.N,/IMU_INT1*
X152850000Y-58930000D03*
G04 #@! TO.P,U3,10,AGAD*
G04 #@! TO.N,unconnected-(U3-Pad10)*
X152850000Y-56390000D03*
G04 #@! TD*
G04 #@! TO.P,U2,1,3VOUT*
G04 #@! TO.N,unconnected-(U2-Pad1)*
X143100000Y-115156000D03*
G04 #@! TO.P,U2,2,ENABLE*
G04 #@! TO.N,/GPS_ENABLE*
X145640000Y-115156000D03*
G04 #@! TO.P,U2,3,VBAT*
G04 #@! TO.N,/VBAT*
X148180000Y-115156000D03*
G04 #@! TO.P,U2,4,FIX*
G04 #@! TO.N,unconnected-(U2-Pad4)*
X150720000Y-115156000D03*
G04 #@! TO.P,U2,5,TX*
G04 #@! TO.N,/TX_RX*
X153260000Y-115156000D03*
G04 #@! TO.P,U2,6,RX*
G04 #@! TO.N,/RX_TX*
X155800000Y-115156000D03*
G04 #@! TO.P,U2,7,GND*
G04 #@! TO.N,GND*
X158340000Y-115156000D03*
G04 #@! TO.P,U2,8,VIN*
G04 #@! TO.N,+3V3*
X160880000Y-115156000D03*
G04 #@! TO.P,U2,9,PPS*
G04 #@! TO.N,/PPS*
X163420000Y-115156000D03*
G04 #@! TO.P,U2,10*
G04 #@! TO.N,N/C*
X143100000Y-85884000D03*
G04 #@! TO.P,U2,11*
X163420000Y-85884000D03*
G04 #@! TD*
D10*
G04 #@! TO.P,SX3,1,Pin_1*
G04 #@! TO.N,/S_XTRA3*
X159610000Y-121825000D03*
G04 #@! TD*
G04 #@! TO.P,3V3,1,1*
G04 #@! TO.N,+3V3*
X121100000Y-89380000D03*
G04 #@! TD*
G04 #@! TO.P,J1,1,Pin_1*
G04 #@! TO.N,/FLASH_IO0*
X169210000Y-76030000D03*
D11*
G04 #@! TO.P,J1,2,Pin_2*
G04 #@! TO.N,/PC8*
X171750000Y-76030000D03*
G04 #@! TO.P,J1,3,Pin_3*
G04 #@! TO.N,/IMU_SCL*
X169210000Y-78570000D03*
G04 #@! TO.P,J1,4,Pin_4*
G04 #@! TO.N,/PC6*
X171750000Y-78570000D03*
G04 #@! TO.P,J1,5,Pin_5*
G04 #@! TO.N,/IMU_SDA*
X169210000Y-81110000D03*
G04 #@! TO.P,J1,6,Pin_6*
G04 #@! TO.N,unconnected-(J1-Pad6)*
X171750000Y-81110000D03*
G04 #@! TO.P,J1,7,Pin_7*
G04 #@! TO.N,unconnected-(J1-Pad7)*
X169210000Y-83650000D03*
G04 #@! TO.P,J1,8,Pin_8*
G04 #@! TO.N,unconnected-(J1-Pad8)*
X171750000Y-83650000D03*
G04 #@! TO.P,J1,9,Pin_9*
G04 #@! TO.N,GND*
X169210000Y-86190000D03*
G04 #@! TO.P,J1,10,Pin_10*
G04 #@! TO.N,unconnected-(J1-Pad10)*
X171750000Y-86190000D03*
G04 #@! TO.P,J1,11,Pin_11*
G04 #@! TO.N,unconnected-(J1-Pad11)*
X169210000Y-88730000D03*
G04 #@! TO.P,J1,12,Pin_12*
G04 #@! TO.N,/PA12*
X171750000Y-88730000D03*
G04 #@! TO.P,J1,13,Pin_13*
G04 #@! TO.N,unconnected-(J1-Pad13)*
X169210000Y-91270000D03*
G04 #@! TO.P,J1,14,Pin_14*
G04 #@! TO.N,/PA11*
X171750000Y-91270000D03*
G04 #@! TO.P,J1,15,Pin_15*
G04 #@! TO.N,unconnected-(J1-Pad15)*
X169210000Y-93810000D03*
G04 #@! TO.P,J1,16,Pin_16*
G04 #@! TO.N,/BLE_CS*
X171750000Y-93810000D03*
G04 #@! TO.P,J1,17,Pin_17*
G04 #@! TO.N,/FLASH_CS*
X169210000Y-96350000D03*
G04 #@! TO.P,J1,18,Pin_18*
G04 #@! TO.N,unconnected-(J1-Pad18)*
X171750000Y-96350000D03*
G04 #@! TO.P,J1,19,Pin_19*
G04 #@! TO.N,/LED_STATUS2*
X169210000Y-98890000D03*
G04 #@! TO.P,J1,20,Pin_20*
G04 #@! TO.N,GND*
X171750000Y-98890000D03*
G04 #@! TO.P,J1,21,Pin_21*
G04 #@! TO.N,/RX_TX*
X169210000Y-101430000D03*
G04 #@! TO.P,J1,22,Pin_22*
G04 #@! TO.N,/FLASH_CLK*
X171750000Y-101430000D03*
G04 #@! TO.P,J1,23,Pin_23*
G04 #@! TO.N,/INTM*
X169210000Y-103970000D03*
G04 #@! TO.P,J1,24,Pin_24*
G04 #@! TO.N,unconnected-(J1-Pad24)*
X171750000Y-103970000D03*
G04 #@! TO.P,J1,25,Pin_25*
G04 #@! TO.N,/FLASH_WP*
X169210000Y-106510000D03*
G04 #@! TO.P,J1,26,Pin_26*
G04 #@! TO.N,unconnected-(J1-Pad26)*
X171750000Y-106510000D03*
G04 #@! TO.P,J1,27,Pin_27*
G04 #@! TO.N,/PB4*
X169210000Y-109050000D03*
G04 #@! TO.P,J1,28,Pin_28*
G04 #@! TO.N,/PB14*
X171750000Y-109050000D03*
G04 #@! TO.P,J1,29,Pin_29*
G04 #@! TO.N,/IMU_INT1*
X169210000Y-111590000D03*
G04 #@! TO.P,J1,30,Pin_30*
G04 #@! TO.N,/BLE_CLK*
X171750000Y-111590000D03*
G04 #@! TO.P,J1,31,Pin_31*
G04 #@! TO.N,unconnected-(J1-Pad31)*
X169210000Y-114130000D03*
G04 #@! TO.P,J1,32,Pin_32*
G04 #@! TO.N,unconnected-(J1-Pad32)*
X171750000Y-114130000D03*
G04 #@! TO.P,J1,33,Pin_33*
G04 #@! TO.N,/TX_RX*
X169210000Y-116670000D03*
G04 #@! TO.P,J1,34,Pin_34*
G04 #@! TO.N,unconnected-(J1-Pad34)*
X171750000Y-116670000D03*
G04 #@! TO.P,J1,35,Pin_35*
G04 #@! TO.N,unconnected-(J1-Pad35)*
X169210000Y-119210000D03*
G04 #@! TO.P,J1,36,Pin_36*
G04 #@! TO.N,/S_XTRA2*
X171750000Y-119210000D03*
G04 #@! TO.P,J1,37,Pin_37*
G04 #@! TO.N,unconnected-(J1-Pad37)*
X169210000Y-121750000D03*
G04 #@! TO.P,J1,38,Pin_38*
G04 #@! TO.N,/S_XTRA3*
X171750000Y-121750000D03*
G04 #@! TD*
D10*
G04 #@! TO.P,5V,1,1*
G04 #@! TO.N,+5V*
X121100000Y-86840000D03*
G04 #@! TD*
G04 #@! TO.P,J7,1,Pin_1*
G04 #@! TO.N,/DFU*
X127800000Y-120300000D03*
G04 #@! TD*
D12*
G04 #@! TO.P,U1,1,CLK*
G04 #@! TO.N,/BLE_CLK*
X115160000Y-114840000D03*
G04 #@! TO.P,U1,2,MISO*
G04 #@! TO.N,/BLE_MISO*
X117700000Y-114840000D03*
G04 #@! TO.P,U1,3,MOSI*
G04 #@! TO.N,/BLE_MOSI*
X120240000Y-114840000D03*
G04 #@! TO.P,U1,4,CS*
G04 #@! TO.N,/BLE_CS*
X122780000Y-114840000D03*
G04 #@! TO.P,U1,5,IRQ*
G04 #@! TO.N,/BLE_IRQ*
X125320000Y-114840000D03*
G04 #@! TO.P,U1,6,DFU*
G04 #@! TO.N,/DFU*
X127860000Y-114840000D03*
G04 #@! TO.P,U1,7,RST*
G04 #@! TO.N,/BLE_RST*
X130400000Y-114840000D03*
G04 #@! TO.P,U1,8,GND*
G04 #@! TO.N,GND*
X132940000Y-114840000D03*
G04 #@! TO.P,U1,9,VIN*
G04 #@! TO.N,+3V3*
X135480000Y-114840000D03*
G04 #@! TO.P,U1,10*
G04 #@! TO.N,N/C*
X116430000Y-94520000D03*
G04 #@! TO.P,U1,11*
X134210000Y-94520000D03*
G04 #@! TD*
D10*
G04 #@! TO.P,PA0,1,Pin_1*
G04 #@! TO.N,/PA0*
X127540000Y-86800000D03*
G04 #@! TD*
G04 #@! TO.P,DX4,1,Pin_1*
G04 #@! TO.N,/XTRA4_D*
X125000000Y-86800000D03*
G04 #@! TD*
D13*
G04 #@! TO.P,BZ1,1,-*
G04 #@! TO.N,Net-(BZ1-Pad1)*
X118200000Y-63350000D03*
D14*
G04 #@! TO.P,BZ1,2,+*
G04 #@! TO.N,Net-(BZ1-Pad2)*
X143600000Y-63350000D03*
G04 #@! TD*
D10*
G04 #@! TO.P,PA12,1,Pin_1*
G04 #@! TO.N,/PA12*
X148942000Y-81820000D03*
G04 #@! TD*
G04 #@! TO.P,PB14,1,Pin_1*
G04 #@! TO.N,/PB14*
X154530000Y-121825000D03*
G04 #@! TD*
G04 #@! TO.P,DX5,1,Pin_1*
G04 #@! TO.N,/XTRA5_D*
X125000000Y-89340000D03*
G04 #@! TD*
D15*
G04 #@! TO.P,U4,1,~{CS}*
G04 #@! TO.N,/FLASH_CS*
X143900000Y-103095000D03*
G04 #@! TO.P,U4,2,DO(IO1)*
G04 #@! TO.N,/FLASH_IO1*
X143900000Y-104365000D03*
G04 #@! TO.P,U4,3,IO2/WP*
G04 #@! TO.N,/FLASH_WP*
X143900000Y-105635000D03*
G04 #@! TO.P,U4,4,GND*
G04 #@! TO.N,GND*
X143900000Y-106905000D03*
G04 #@! TO.P,U4,5,DI(IO0)*
G04 #@! TO.N,/FLASH_IO0*
X136100000Y-106905000D03*
G04 #@! TO.P,U4,6,CLK*
G04 #@! TO.N,/FLASH_CLK*
X136100000Y-105635000D03*
G04 #@! TO.P,U4,7,IO3/HOLD/RESET*
G04 #@! TO.N,/FLASH_RESET*
X136100000Y-104365000D03*
G04 #@! TO.P,U4,8,VCC*
G04 #@! TO.N,+3V3*
X136100000Y-103095000D03*
D16*
G04 #@! TO.P,U4,9*
G04 #@! TO.N,N/C*
X140000000Y-105000000D03*
G04 #@! TD*
D17*
G04 #@! TO.P,C1,1*
G04 #@! TO.N,+3V3*
X133762500Y-98700000D03*
G04 #@! TO.P,C1,2*
G04 #@! TO.N,GND*
X132037500Y-98700000D03*
G04 #@! TD*
D18*
G04 #@! TO.N,/XTRA4_D*
X119800000Y-91300000D03*
G04 #@! TO.N,/XTRA5_D*
X121600000Y-92400000D03*
G04 #@! TO.N,/PA15*
X122000000Y-99000000D03*
D19*
G04 #@! TO.N,+3V3*
X113099999Y-86200001D03*
D18*
G04 #@! TO.N,/BLE_IRQ*
X114400000Y-81100000D03*
G04 #@! TO.N,/GPS_ENABLE*
X118200000Y-118300000D03*
D20*
G04 #@! TO.N,/FLASH_IO0*
X132900000Y-106100000D03*
X146500000Y-76700000D03*
G04 #@! TO.N,GND*
X114100000Y-56000000D03*
X129500000Y-98700000D03*
X144400000Y-120400000D03*
X148000000Y-108200000D03*
X112700000Y-55200000D03*
X139100000Y-120400000D03*
X146400000Y-108200000D03*
G04 #@! TO.N,/FLASH_CLK*
X150900000Y-104700000D03*
X138100000Y-109000000D03*
G04 #@! TO.N,+3V3*
X136000000Y-100600000D03*
X136000000Y-98700000D03*
G04 #@! TD*
D21*
G04 #@! TO.N,/XTRA4_D*
X108250000Y-86190000D02*
X109560000Y-87500000D01*
X109560000Y-87500000D02*
X116000000Y-87500000D01*
X116000000Y-87500000D02*
X119800000Y-91300000D01*
G04 #@! TO.N,/XTRA5_D*
X108250000Y-88730000D02*
X109520000Y-90000000D01*
X109520000Y-90000000D02*
X113500000Y-90000000D01*
X113500000Y-90000000D02*
X115900000Y-92400000D01*
X115900000Y-92400000D02*
X121600000Y-92400000D01*
G04 #@! TO.N,/PA15*
X127540000Y-93460000D02*
X127540000Y-89340000D01*
X122000000Y-99000000D02*
X127540000Y-93460000D01*
G04 #@! TO.N,/BUZZ*
X108250000Y-101430000D02*
X109480000Y-100200000D01*
X116900000Y-100200000D02*
X123200000Y-93900000D01*
X109480000Y-100200000D02*
X116900000Y-100200000D01*
X122360000Y-81760000D02*
X121100000Y-81760000D01*
X123200000Y-93900000D02*
X123200000Y-82600000D01*
X123200000Y-82600000D02*
X122360000Y-81760000D01*
G04 #@! TO.N,/PA0*
X131400000Y-93500000D02*
X131400000Y-89700000D01*
X110790000Y-109050000D02*
X115850000Y-109050000D01*
X128500000Y-86800000D02*
X127540000Y-86800000D01*
X115850000Y-109050000D02*
X131400000Y-93500000D01*
X131400000Y-89700000D02*
X128500000Y-86800000D01*
G04 #@! TO.N,+5V*
X121100000Y-86840000D02*
X118140000Y-86840000D01*
X118140000Y-86840000D02*
X112410000Y-81110000D01*
X112410000Y-81110000D02*
X110790000Y-81110000D01*
G04 #@! TO.N,/BLE_IRQ*
X114400000Y-81100000D02*
X114400000Y-79640000D01*
X114400000Y-79640000D02*
X110790000Y-76030000D01*
G04 #@! TO.N,/GPS_ENABLE*
X131200000Y-122600000D02*
X122500000Y-122600000D01*
X122500000Y-122600000D02*
X118200000Y-118300000D01*
X141496000Y-119300000D02*
X134900000Y-119300000D01*
X134500000Y-119300000D02*
X131200000Y-122600000D01*
X145640000Y-115156000D02*
X141496000Y-119300000D01*
X134900000Y-119300000D02*
X134500000Y-119300000D01*
G04 #@! TO.N,/BLE_CLK*
X115160000Y-114840000D02*
X117800000Y-112200000D01*
X126000000Y-111000000D02*
X152500000Y-111000000D01*
X117800000Y-112200000D02*
X124800000Y-112200000D01*
X124800000Y-112200000D02*
X126000000Y-111000000D01*
X152500000Y-111000000D02*
X155700000Y-107800000D01*
X155700000Y-107800000D02*
X165800000Y-107800000D01*
X168300000Y-110300000D02*
X170460000Y-110300000D01*
X165800000Y-107800000D02*
X168300000Y-110300000D01*
X170460000Y-110300000D02*
X171750000Y-111590000D01*
G04 #@! TO.N,/FLASH_IO0*
X133705000Y-106905000D02*
X132900000Y-106100000D01*
X146500000Y-76700000D02*
X147170000Y-76030000D01*
X147170000Y-76030000D02*
X169210000Y-76030000D01*
X136100000Y-106905000D02*
X133705000Y-106905000D01*
G04 #@! TO.N,/PC8*
X170480000Y-77300000D02*
X153462000Y-77300000D01*
X153462000Y-77300000D02*
X151482000Y-79280000D01*
X171750000Y-76030000D02*
X170480000Y-77300000D01*
G04 #@! TO.N,/PC6*
X158300000Y-79800000D02*
X156280000Y-81820000D01*
X170520000Y-79800000D02*
X158300000Y-79800000D01*
X171750000Y-78570000D02*
X170520000Y-79800000D01*
X156280000Y-81820000D02*
X151482000Y-81820000D01*
G04 #@! TO.N,/PA12*
X170520000Y-87500000D02*
X151700000Y-87500000D01*
X151700000Y-87500000D02*
X148942000Y-84742000D01*
X148942000Y-84742000D02*
X148942000Y-81820000D01*
X171750000Y-88730000D02*
X170520000Y-87500000D01*
G04 #@! TO.N,/PA11*
X146800000Y-85692752D02*
X146800000Y-79700000D01*
X146800000Y-79700000D02*
X147220000Y-79280000D01*
X151107248Y-90000000D02*
X148935955Y-87828707D01*
X147220000Y-79280000D02*
X148942000Y-79280000D01*
X170480000Y-90000000D02*
X151107248Y-90000000D01*
X171750000Y-91270000D02*
X170480000Y-90000000D01*
X148935955Y-87828707D02*
X146800000Y-85692752D01*
G04 #@! TO.N,GND*
X145105000Y-106905000D02*
X143900000Y-106905000D01*
X148000000Y-108200000D02*
X146400000Y-108200000D01*
X132037500Y-98700000D02*
X129500000Y-98700000D01*
X146400000Y-108200000D02*
X145105000Y-106905000D01*
G04 #@! TO.N,/FLASH_CS*
X162465000Y-103095000D02*
X143900000Y-103095000D01*
X169210000Y-96350000D02*
X162465000Y-103095000D01*
G04 #@! TO.N,/FLASH_CLK*
X137300000Y-106100000D02*
X136835000Y-105635000D01*
X138100000Y-109000000D02*
X138100000Y-107826942D01*
X171750000Y-101430000D02*
X170580000Y-102600000D01*
X163100000Y-104700000D02*
X150900000Y-104700000D01*
X136835000Y-105635000D02*
X136100000Y-105635000D01*
X170193489Y-102606511D02*
X165193489Y-102606511D01*
X165193489Y-102606511D02*
X163100000Y-104700000D01*
X170580000Y-102600000D02*
X170200000Y-102600000D01*
X170200000Y-102600000D02*
X170193489Y-102606511D01*
X138100000Y-107826942D02*
X137300000Y-107026942D01*
X137300000Y-107026942D02*
X137300000Y-106100000D01*
G04 #@! TO.N,+3V3*
X136000000Y-100600000D02*
X136000000Y-98700000D01*
X136100000Y-103095000D02*
X136100000Y-100700000D01*
X136100000Y-100700000D02*
X136000000Y-100600000D01*
X136000000Y-98700000D02*
X133762500Y-98700000D01*
G04 #@! TO.N,/FLASH_WP*
X169210000Y-106510000D02*
X146910000Y-106510000D01*
X146035000Y-105635000D02*
X143900000Y-105635000D01*
X146910000Y-106510000D02*
X146035000Y-105635000D01*
G04 #@! TO.N,/TX_RX*
X169210000Y-116670000D02*
X154774000Y-116670000D01*
X154774000Y-116670000D02*
X153260000Y-115156000D01*
G04 #@! TO.N,/FLASH_IO1*
X108250000Y-74250000D02*
X108250000Y-76030000D01*
X142600000Y-98100000D02*
X115600000Y-71100000D01*
X142600000Y-104200000D02*
X142600000Y-98100000D01*
X142765000Y-104365000D02*
X142600000Y-104200000D01*
X111400000Y-71100000D02*
X108250000Y-74250000D01*
X143900000Y-104365000D02*
X142765000Y-104365000D01*
X115600000Y-71100000D02*
X111400000Y-71100000D01*
G04 #@! TO.N,/FLASH_RESET*
X119310000Y-111590000D02*
X126535000Y-104365000D01*
X110790000Y-111590000D02*
X119310000Y-111590000D01*
X126535000Y-104365000D02*
X136100000Y-104365000D01*
G04 #@! TO.N,/PPS*
X163420000Y-115156000D02*
X163420000Y-113020000D01*
X163420000Y-113020000D02*
X160900000Y-110500000D01*
X121500000Y-123400000D02*
X114770000Y-116670000D01*
X145500000Y-123400000D02*
X121500000Y-123400000D01*
X160900000Y-110500000D02*
X155200000Y-110500000D01*
X155200000Y-110500000D02*
X152000000Y-113700000D01*
X152000000Y-116900000D02*
X145500000Y-123400000D01*
X114770000Y-116670000D02*
X110790000Y-116670000D01*
X152000000Y-113700000D02*
X152000000Y-116900000D01*
G04 #@! TO.N,/DFU*
X127800000Y-120300000D02*
X127800000Y-114900000D01*
X127800000Y-114900000D02*
X127860000Y-114840000D01*
G04 #@! TD*
M02*
