G04 #@! TF.GenerationSoftware,KiCad,Pcbnew,(5.99.0-13294-g19fc8c6d98)*
G04 #@! TF.CreationDate,2021-12-07T19:06:38+01:00*
G04 #@! TF.ProjectId,easycomm,65617379-636f-46d6-9d2e-6b696361645f,rev?*
G04 #@! TF.SameCoordinates,Original*
G04 #@! TF.FileFunction,Legend,Top*
G04 #@! TF.FilePolarity,Positive*
%FSLAX46Y46*%
G04 Gerber Fmt 4.6, Leading zero omitted, Abs format (unit mm)*
G04 Created by KiCad (PCBNEW (5.99.0-13294-g19fc8c6d98)) date 2021-12-07 19:06:38*
%MOMM*%
%LPD*%
G01*
G04 APERTURE LIST*
%ADD10C,0.300000*%
%ADD11C,0.150000*%
%ADD12C,0.120000*%
G04 APERTURE END LIST*
D10*
X127078571Y-123278571D02*
X127078571Y-121778571D01*
X127435714Y-121778571D01*
X127650000Y-121850000D01*
X127792857Y-121992857D01*
X127864285Y-122135714D01*
X127935714Y-122421428D01*
X127935714Y-122635714D01*
X127864285Y-122921428D01*
X127792857Y-123064285D01*
X127650000Y-123207142D01*
X127435714Y-123278571D01*
X127078571Y-123278571D01*
X129078571Y-122492857D02*
X128578571Y-122492857D01*
X128578571Y-123278571D02*
X128578571Y-121778571D01*
X129292857Y-121778571D01*
X129864285Y-121778571D02*
X129864285Y-122992857D01*
X129935714Y-123135714D01*
X130007142Y-123207142D01*
X130150000Y-123278571D01*
X130435714Y-123278571D01*
X130578571Y-123207142D01*
X130650000Y-123135714D01*
X130721428Y-122992857D01*
X130721428Y-121778571D01*
X119335714Y-104192857D02*
X119550000Y-104264285D01*
X119621428Y-104335714D01*
X119692857Y-104478571D01*
X119692857Y-104692857D01*
X119621428Y-104835714D01*
X119550000Y-104907142D01*
X119407142Y-104978571D01*
X118835714Y-104978571D01*
X118835714Y-103478571D01*
X119335714Y-103478571D01*
X119478571Y-103550000D01*
X119550000Y-103621428D01*
X119621428Y-103764285D01*
X119621428Y-103907142D01*
X119550000Y-104050000D01*
X119478571Y-104121428D01*
X119335714Y-104192857D01*
X118835714Y-104192857D01*
X121050000Y-104978571D02*
X120335714Y-104978571D01*
X120335714Y-103478571D01*
X121550000Y-103478571D02*
X121550000Y-104692857D01*
X121621428Y-104835714D01*
X121692857Y-104907142D01*
X121835714Y-104978571D01*
X122121428Y-104978571D01*
X122264285Y-104907142D01*
X122335714Y-104835714D01*
X122407142Y-104692857D01*
X122407142Y-103478571D01*
X123121428Y-104192857D02*
X123621428Y-104192857D01*
X123835714Y-104978571D02*
X123121428Y-104978571D01*
X123121428Y-103478571D01*
X123835714Y-103478571D01*
X124264285Y-103478571D02*
X125121428Y-103478571D01*
X124692857Y-104978571D02*
X124692857Y-103478571D01*
X125907142Y-103478571D02*
X126192857Y-103478571D01*
X126335714Y-103550000D01*
X126478571Y-103692857D01*
X126550000Y-103978571D01*
X126550000Y-104478571D01*
X126478571Y-104764285D01*
X126335714Y-104907142D01*
X126192857Y-104978571D01*
X125907142Y-104978571D01*
X125764285Y-104907142D01*
X125621428Y-104764285D01*
X125550000Y-104478571D01*
X125550000Y-103978571D01*
X125621428Y-103692857D01*
X125764285Y-103550000D01*
X125907142Y-103478571D01*
X127478571Y-103478571D02*
X127764285Y-103478571D01*
X127907142Y-103550000D01*
X128050000Y-103692857D01*
X128121428Y-103978571D01*
X128121428Y-104478571D01*
X128050000Y-104764285D01*
X127907142Y-104907142D01*
X127764285Y-104978571D01*
X127478571Y-104978571D01*
X127335714Y-104907142D01*
X127192857Y-104764285D01*
X127121428Y-104478571D01*
X127121428Y-103978571D01*
X127192857Y-103692857D01*
X127335714Y-103550000D01*
X127478571Y-103478571D01*
X128550000Y-103478571D02*
X129407142Y-103478571D01*
X128978571Y-104978571D02*
X128978571Y-103478571D01*
X129907142Y-104978571D02*
X129907142Y-103478571D01*
X129907142Y-104192857D02*
X130764285Y-104192857D01*
X130764285Y-104978571D02*
X130764285Y-103478571D01*
X157957142Y-61078571D02*
X157957142Y-59578571D01*
X158671428Y-61078571D02*
X158671428Y-59578571D01*
X159171428Y-60650000D01*
X159671428Y-59578571D01*
X159671428Y-61078571D01*
X160385714Y-59578571D02*
X160385714Y-60792857D01*
X160457142Y-60935714D01*
X160528571Y-61007142D01*
X160671428Y-61078571D01*
X160957142Y-61078571D01*
X161100000Y-61007142D01*
X161171428Y-60935714D01*
X161242857Y-60792857D01*
X161242857Y-59578571D01*
X152828571Y-98750000D02*
X152685714Y-98678571D01*
X152471428Y-98678571D01*
X152257142Y-98750000D01*
X152114285Y-98892857D01*
X152042857Y-99035714D01*
X151971428Y-99321428D01*
X151971428Y-99535714D01*
X152042857Y-99821428D01*
X152114285Y-99964285D01*
X152257142Y-100107142D01*
X152471428Y-100178571D01*
X152614285Y-100178571D01*
X152828571Y-100107142D01*
X152900000Y-100035714D01*
X152900000Y-99535714D01*
X152614285Y-99535714D01*
X153542857Y-100178571D02*
X153542857Y-98678571D01*
X154114285Y-98678571D01*
X154257142Y-98750000D01*
X154328571Y-98821428D01*
X154400000Y-98964285D01*
X154400000Y-99178571D01*
X154328571Y-99321428D01*
X154257142Y-99392857D01*
X154114285Y-99464285D01*
X153542857Y-99464285D01*
X154971428Y-100107142D02*
X155185714Y-100178571D01*
X155542857Y-100178571D01*
X155685714Y-100107142D01*
X155757142Y-100035714D01*
X155828571Y-99892857D01*
X155828571Y-99750000D01*
X155757142Y-99607142D01*
X155685714Y-99535714D01*
X155542857Y-99464285D01*
X155257142Y-99392857D01*
X155114285Y-99321428D01*
X155042857Y-99250000D01*
X154971428Y-99107142D01*
X154971428Y-98964285D01*
X155042857Y-98821428D01*
X155114285Y-98750000D01*
X155257142Y-98678571D01*
X155614285Y-98678571D01*
X155828571Y-98750000D01*
D11*
X145547619Y-91618571D02*
X145880952Y-91618571D01*
X146023809Y-92142380D02*
X145547619Y-92142380D01*
X145547619Y-91142380D01*
X146023809Y-91142380D01*
X146880952Y-92142380D02*
X146880952Y-91618571D01*
X146833333Y-91523333D01*
X146738095Y-91475714D01*
X146547619Y-91475714D01*
X146452380Y-91523333D01*
X146880952Y-92094761D02*
X146785714Y-92142380D01*
X146547619Y-92142380D01*
X146452380Y-92094761D01*
X146404761Y-91999523D01*
X146404761Y-91904285D01*
X146452380Y-91809047D01*
X146547619Y-91761428D01*
X146785714Y-91761428D01*
X146880952Y-91713809D01*
X147309523Y-92094761D02*
X147404761Y-92142380D01*
X147595238Y-92142380D01*
X147690476Y-92094761D01*
X147738095Y-91999523D01*
X147738095Y-91951904D01*
X147690476Y-91856666D01*
X147595238Y-91809047D01*
X147452380Y-91809047D01*
X147357142Y-91761428D01*
X147309523Y-91666190D01*
X147309523Y-91618571D01*
X147357142Y-91523333D01*
X147452380Y-91475714D01*
X147595238Y-91475714D01*
X147690476Y-91523333D01*
X148071428Y-91475714D02*
X148309523Y-92142380D01*
X148547619Y-91475714D02*
X148309523Y-92142380D01*
X148214285Y-92380476D01*
X148166666Y-92428095D01*
X148071428Y-92475714D01*
X149500000Y-92047142D02*
X149452380Y-92094761D01*
X149309523Y-92142380D01*
X149214285Y-92142380D01*
X149071428Y-92094761D01*
X148976190Y-91999523D01*
X148928571Y-91904285D01*
X148880952Y-91713809D01*
X148880952Y-91570952D01*
X148928571Y-91380476D01*
X148976190Y-91285238D01*
X149071428Y-91190000D01*
X149214285Y-91142380D01*
X149309523Y-91142380D01*
X149452380Y-91190000D01*
X149500000Y-91237619D01*
X150071428Y-92142380D02*
X149976190Y-92094761D01*
X149928571Y-92047142D01*
X149880952Y-91951904D01*
X149880952Y-91666190D01*
X149928571Y-91570952D01*
X149976190Y-91523333D01*
X150071428Y-91475714D01*
X150214285Y-91475714D01*
X150309523Y-91523333D01*
X150357142Y-91570952D01*
X150404761Y-91666190D01*
X150404761Y-91951904D01*
X150357142Y-92047142D01*
X150309523Y-92094761D01*
X150214285Y-92142380D01*
X150071428Y-92142380D01*
X150833333Y-92142380D02*
X150833333Y-91475714D01*
X150833333Y-91570952D02*
X150880952Y-91523333D01*
X150976190Y-91475714D01*
X151119047Y-91475714D01*
X151214285Y-91523333D01*
X151261904Y-91618571D01*
X151261904Y-92142380D01*
X151261904Y-91618571D02*
X151309523Y-91523333D01*
X151404761Y-91475714D01*
X151547619Y-91475714D01*
X151642857Y-91523333D01*
X151690476Y-91618571D01*
X151690476Y-92142380D01*
X152166666Y-92142380D02*
X152166666Y-91475714D01*
X152166666Y-91570952D02*
X152214285Y-91523333D01*
X152309523Y-91475714D01*
X152452380Y-91475714D01*
X152547619Y-91523333D01*
X152595238Y-91618571D01*
X152595238Y-92142380D01*
X152595238Y-91618571D02*
X152642857Y-91523333D01*
X152738095Y-91475714D01*
X152880952Y-91475714D01*
X152976190Y-91523333D01*
X153023809Y-91618571D01*
X153023809Y-92142380D01*
X154261904Y-92142380D02*
X154261904Y-91475714D01*
X154261904Y-91666190D02*
X154309523Y-91570952D01*
X154357142Y-91523333D01*
X154452380Y-91475714D01*
X154547619Y-91475714D01*
X155261904Y-92094761D02*
X155166666Y-92142380D01*
X154976190Y-92142380D01*
X154880952Y-92094761D01*
X154833333Y-91999523D01*
X154833333Y-91618571D01*
X154880952Y-91523333D01*
X154976190Y-91475714D01*
X155166666Y-91475714D01*
X155261904Y-91523333D01*
X155309523Y-91618571D01*
X155309523Y-91713809D01*
X154833333Y-91809047D01*
X155642857Y-91475714D02*
X155880952Y-92142380D01*
X156119047Y-91475714D01*
X157214285Y-91856666D02*
X157690476Y-91856666D01*
X157119047Y-92142380D02*
X157452380Y-91142380D01*
X157785714Y-92142380D01*
X159404761Y-92142380D02*
X158833333Y-92142380D01*
X159119047Y-92142380D02*
X159119047Y-91142380D01*
X159023809Y-91285238D01*
X158928571Y-91380476D01*
X158833333Y-91428095D01*
X159785714Y-91237619D02*
X159833333Y-91190000D01*
X159928571Y-91142380D01*
X160166666Y-91142380D01*
X160261904Y-91190000D01*
X160309523Y-91237619D01*
X160357142Y-91332857D01*
X160357142Y-91428095D01*
X160309523Y-91570952D01*
X159738095Y-92142380D01*
X160357142Y-92142380D01*
X160785714Y-91761428D02*
X161547619Y-91761428D01*
X161976190Y-91237619D02*
X162023809Y-91190000D01*
X162119047Y-91142380D01*
X162357142Y-91142380D01*
X162452380Y-91190000D01*
X162500000Y-91237619D01*
X162547619Y-91332857D01*
X162547619Y-91428095D01*
X162500000Y-91570952D01*
X161928571Y-92142380D01*
X162547619Y-92142380D01*
X163500000Y-92142380D02*
X162928571Y-92142380D01*
X163214285Y-92142380D02*
X163214285Y-91142380D01*
X163119047Y-91285238D01*
X163023809Y-91380476D01*
X162928571Y-91428095D01*
X145642857Y-93752380D02*
X145642857Y-92752380D01*
X145880952Y-92752380D01*
X146023809Y-92800000D01*
X146119047Y-92895238D01*
X146166666Y-92990476D01*
X146214285Y-93180952D01*
X146214285Y-93323809D01*
X146166666Y-93514285D01*
X146119047Y-93609523D01*
X146023809Y-93704761D01*
X145880952Y-93752380D01*
X145642857Y-93752380D01*
X147023809Y-93704761D02*
X146928571Y-93752380D01*
X146738095Y-93752380D01*
X146642857Y-93704761D01*
X146595238Y-93609523D01*
X146595238Y-93228571D01*
X146642857Y-93133333D01*
X146738095Y-93085714D01*
X146928571Y-93085714D01*
X147023809Y-93133333D01*
X147071428Y-93228571D01*
X147071428Y-93323809D01*
X146595238Y-93419047D01*
X147452380Y-93704761D02*
X147547619Y-93752380D01*
X147738095Y-93752380D01*
X147833333Y-93704761D01*
X147880952Y-93609523D01*
X147880952Y-93561904D01*
X147833333Y-93466666D01*
X147738095Y-93419047D01*
X147595238Y-93419047D01*
X147500000Y-93371428D01*
X147452380Y-93276190D01*
X147452380Y-93228571D01*
X147500000Y-93133333D01*
X147595238Y-93085714D01*
X147738095Y-93085714D01*
X147833333Y-93133333D01*
X148309523Y-93752380D02*
X148309523Y-93085714D01*
X148309523Y-92752380D02*
X148261904Y-92800000D01*
X148309523Y-92847619D01*
X148357142Y-92800000D01*
X148309523Y-92752380D01*
X148309523Y-92847619D01*
X149214285Y-93085714D02*
X149214285Y-93895238D01*
X149166666Y-93990476D01*
X149119047Y-94038095D01*
X149023809Y-94085714D01*
X148880952Y-94085714D01*
X148785714Y-94038095D01*
X149214285Y-93704761D02*
X149119047Y-93752380D01*
X148928571Y-93752380D01*
X148833333Y-93704761D01*
X148785714Y-93657142D01*
X148738095Y-93561904D01*
X148738095Y-93276190D01*
X148785714Y-93180952D01*
X148833333Y-93133333D01*
X148928571Y-93085714D01*
X149119047Y-93085714D01*
X149214285Y-93133333D01*
X149690476Y-93085714D02*
X149690476Y-93752380D01*
X149690476Y-93180952D02*
X149738095Y-93133333D01*
X149833333Y-93085714D01*
X149976190Y-93085714D01*
X150071428Y-93133333D01*
X150119047Y-93228571D01*
X150119047Y-93752380D01*
X151357142Y-93752380D02*
X151357142Y-92752380D01*
X151357142Y-93133333D02*
X151452380Y-93085714D01*
X151642857Y-93085714D01*
X151738095Y-93133333D01*
X151785714Y-93180952D01*
X151833333Y-93276190D01*
X151833333Y-93561904D01*
X151785714Y-93657142D01*
X151738095Y-93704761D01*
X151642857Y-93752380D01*
X151452380Y-93752380D01*
X151357142Y-93704761D01*
X152166666Y-93085714D02*
X152404761Y-93752380D01*
X152642857Y-93085714D02*
X152404761Y-93752380D01*
X152309523Y-93990476D01*
X152261904Y-94038095D01*
X152166666Y-94085714D01*
X154119047Y-93228571D02*
X154261904Y-93276190D01*
X154309523Y-93323809D01*
X154357142Y-93419047D01*
X154357142Y-93561904D01*
X154309523Y-93657142D01*
X154261904Y-93704761D01*
X154166666Y-93752380D01*
X153785714Y-93752380D01*
X153785714Y-92752380D01*
X154119047Y-92752380D01*
X154214285Y-92800000D01*
X154261904Y-92847619D01*
X154309523Y-92942857D01*
X154309523Y-93038095D01*
X154261904Y-93133333D01*
X154214285Y-93180952D01*
X154119047Y-93228571D01*
X153785714Y-93228571D01*
X155214285Y-93752380D02*
X155214285Y-93228571D01*
X155166666Y-93133333D01*
X155071428Y-93085714D01*
X154880952Y-93085714D01*
X154785714Y-93133333D01*
X155214285Y-93704761D02*
X155119047Y-93752380D01*
X154880952Y-93752380D01*
X154785714Y-93704761D01*
X154738095Y-93609523D01*
X154738095Y-93514285D01*
X154785714Y-93419047D01*
X154880952Y-93371428D01*
X155119047Y-93371428D01*
X155214285Y-93323809D01*
X155642857Y-93704761D02*
X155738095Y-93752380D01*
X155928571Y-93752380D01*
X156023809Y-93704761D01*
X156071428Y-93609523D01*
X156071428Y-93561904D01*
X156023809Y-93466666D01*
X155928571Y-93419047D01*
X155785714Y-93419047D01*
X155690476Y-93371428D01*
X155642857Y-93276190D01*
X155642857Y-93228571D01*
X155690476Y-93133333D01*
X155785714Y-93085714D01*
X155928571Y-93085714D01*
X156023809Y-93133333D01*
X157595238Y-93228571D02*
X157738095Y-93276190D01*
X157785714Y-93323809D01*
X157833333Y-93419047D01*
X157833333Y-93561904D01*
X157785714Y-93657142D01*
X157738095Y-93704761D01*
X157642857Y-93752380D01*
X157261904Y-93752380D01*
X157261904Y-92752380D01*
X157595238Y-92752380D01*
X157690476Y-92800000D01*
X157738095Y-92847619D01*
X157785714Y-92942857D01*
X157785714Y-93038095D01*
X157738095Y-93133333D01*
X157690476Y-93180952D01*
X157595238Y-93228571D01*
X157261904Y-93228571D01*
X158261904Y-93752380D02*
X158261904Y-93085714D01*
X158261904Y-93276190D02*
X158309523Y-93180952D01*
X158357142Y-93133333D01*
X158452380Y-93085714D01*
X158547619Y-93085714D01*
X159309523Y-93085714D02*
X159309523Y-93752380D01*
X158880952Y-93085714D02*
X158880952Y-93609523D01*
X158928571Y-93704761D01*
X159023809Y-93752380D01*
X159166666Y-93752380D01*
X159261904Y-93704761D01*
X159309523Y-93657142D01*
X160214285Y-93085714D02*
X160214285Y-93895238D01*
X160166666Y-93990476D01*
X160119047Y-94038095D01*
X160023809Y-94085714D01*
X159880952Y-94085714D01*
X159785714Y-94038095D01*
X160214285Y-93704761D02*
X160119047Y-93752380D01*
X159928571Y-93752380D01*
X159833333Y-93704761D01*
X159785714Y-93657142D01*
X159738095Y-93561904D01*
X159738095Y-93276190D01*
X159785714Y-93180952D01*
X159833333Y-93133333D01*
X159928571Y-93085714D01*
X160119047Y-93085714D01*
X160214285Y-93133333D01*
X160690476Y-93752380D02*
X160690476Y-93085714D01*
X160690476Y-93180952D02*
X160738095Y-93133333D01*
X160833333Y-93085714D01*
X160976190Y-93085714D01*
X161071428Y-93133333D01*
X161119047Y-93228571D01*
X161119047Y-93752380D01*
X161119047Y-93228571D02*
X161166666Y-93133333D01*
X161261904Y-93085714D01*
X161404761Y-93085714D01*
X161500000Y-93133333D01*
X161547619Y-93228571D01*
X161547619Y-93752380D01*
X162452380Y-93752380D02*
X162452380Y-93228571D01*
X162404761Y-93133333D01*
X162309523Y-93085714D01*
X162119047Y-93085714D01*
X162023809Y-93133333D01*
X162452380Y-93704761D02*
X162357142Y-93752380D01*
X162119047Y-93752380D01*
X162023809Y-93704761D01*
X161976190Y-93609523D01*
X161976190Y-93514285D01*
X162023809Y-93419047D01*
X162119047Y-93371428D01*
X162357142Y-93371428D01*
X162452380Y-93323809D01*
X162928571Y-93085714D02*
X162928571Y-93752380D01*
X162928571Y-93180952D02*
X162976190Y-93133333D01*
X163071428Y-93085714D01*
X163214285Y-93085714D01*
X163309523Y-93133333D01*
X163357142Y-93228571D01*
X163357142Y-93752380D01*
X147833333Y-94695714D02*
X148023809Y-95362380D01*
X148214285Y-94886190D01*
X148404761Y-95362380D01*
X148595238Y-94695714D01*
X148880952Y-94695714D02*
X149071428Y-95362380D01*
X149261904Y-94886190D01*
X149452380Y-95362380D01*
X149642857Y-94695714D01*
X149928571Y-94695714D02*
X150119047Y-95362380D01*
X150309523Y-94886190D01*
X150500000Y-95362380D01*
X150690476Y-94695714D01*
X151071428Y-95267142D02*
X151119047Y-95314761D01*
X151071428Y-95362380D01*
X151023809Y-95314761D01*
X151071428Y-95267142D01*
X151071428Y-95362380D01*
X151452380Y-94695714D02*
X151690476Y-95362380D01*
X151928571Y-94695714D01*
X152309523Y-95362380D02*
X152309523Y-94695714D01*
X152309523Y-94362380D02*
X152261904Y-94410000D01*
X152309523Y-94457619D01*
X152357142Y-94410000D01*
X152309523Y-94362380D01*
X152309523Y-94457619D01*
X152738095Y-95314761D02*
X152833333Y-95362380D01*
X153023809Y-95362380D01*
X153119047Y-95314761D01*
X153166666Y-95219523D01*
X153166666Y-95171904D01*
X153119047Y-95076666D01*
X153023809Y-95029047D01*
X152880952Y-95029047D01*
X152785714Y-94981428D01*
X152738095Y-94886190D01*
X152738095Y-94838571D01*
X152785714Y-94743333D01*
X152880952Y-94695714D01*
X153023809Y-94695714D01*
X153119047Y-94743333D01*
X153595238Y-95362380D02*
X153595238Y-94695714D01*
X153595238Y-94362380D02*
X153547619Y-94410000D01*
X153595238Y-94457619D01*
X153642857Y-94410000D01*
X153595238Y-94362380D01*
X153595238Y-94457619D01*
X154214285Y-95362380D02*
X154119047Y-95314761D01*
X154071428Y-95267142D01*
X154023809Y-95171904D01*
X154023809Y-94886190D01*
X154071428Y-94790952D01*
X154119047Y-94743333D01*
X154214285Y-94695714D01*
X154357142Y-94695714D01*
X154452380Y-94743333D01*
X154500000Y-94790952D01*
X154547619Y-94886190D01*
X154547619Y-95171904D01*
X154500000Y-95267142D01*
X154452380Y-95314761D01*
X154357142Y-95362380D01*
X154214285Y-95362380D01*
X154976190Y-94695714D02*
X154976190Y-95362380D01*
X154976190Y-94790952D02*
X155023809Y-94743333D01*
X155119047Y-94695714D01*
X155261904Y-94695714D01*
X155357142Y-94743333D01*
X155404761Y-94838571D01*
X155404761Y-95362380D01*
X155880952Y-94695714D02*
X155880952Y-95362380D01*
X155880952Y-94790952D02*
X155928571Y-94743333D01*
X156023809Y-94695714D01*
X156166666Y-94695714D01*
X156261904Y-94743333D01*
X156309523Y-94838571D01*
X156309523Y-95362380D01*
X157214285Y-95362380D02*
X157214285Y-94838571D01*
X157166666Y-94743333D01*
X157071428Y-94695714D01*
X156880952Y-94695714D01*
X156785714Y-94743333D01*
X157214285Y-95314761D02*
X157119047Y-95362380D01*
X156880952Y-95362380D01*
X156785714Y-95314761D01*
X156738095Y-95219523D01*
X156738095Y-95124285D01*
X156785714Y-95029047D01*
X156880952Y-94981428D01*
X157119047Y-94981428D01*
X157214285Y-94933809D01*
X157690476Y-95362380D02*
X157690476Y-94695714D01*
X157690476Y-94362380D02*
X157642857Y-94410000D01*
X157690476Y-94457619D01*
X157738095Y-94410000D01*
X157690476Y-94362380D01*
X157690476Y-94457619D01*
X158166666Y-95362380D02*
X158166666Y-94695714D01*
X158166666Y-94886190D02*
X158214285Y-94790952D01*
X158261904Y-94743333D01*
X158357142Y-94695714D01*
X158452380Y-94695714D01*
X159166666Y-95314761D02*
X159071428Y-95362380D01*
X158880952Y-95362380D01*
X158785714Y-95314761D01*
X158738095Y-95219523D01*
X158738095Y-94838571D01*
X158785714Y-94743333D01*
X158880952Y-94695714D01*
X159071428Y-94695714D01*
X159166666Y-94743333D01*
X159214285Y-94838571D01*
X159214285Y-94933809D01*
X158738095Y-95029047D01*
X159642857Y-95267142D02*
X159690476Y-95314761D01*
X159642857Y-95362380D01*
X159595238Y-95314761D01*
X159642857Y-95267142D01*
X159642857Y-95362380D01*
X160119047Y-94695714D02*
X160119047Y-95362380D01*
X160119047Y-94790952D02*
X160166666Y-94743333D01*
X160261904Y-94695714D01*
X160404761Y-94695714D01*
X160500000Y-94743333D01*
X160547619Y-94838571D01*
X160547619Y-95362380D01*
X161166666Y-95362380D02*
X161071428Y-95314761D01*
X161023809Y-95219523D01*
X161023809Y-94362380D01*
G04 #@! TO.C,R3*
X109420833Y-59752380D02*
X109087500Y-59276190D01*
X108849404Y-59752380D02*
X108849404Y-58752380D01*
X109230357Y-58752380D01*
X109325595Y-58800000D01*
X109373214Y-58847619D01*
X109420833Y-58942857D01*
X109420833Y-59085714D01*
X109373214Y-59180952D01*
X109325595Y-59228571D01*
X109230357Y-59276190D01*
X108849404Y-59276190D01*
X109754166Y-58752380D02*
X110373214Y-58752380D01*
X110039880Y-59133333D01*
X110182738Y-59133333D01*
X110277976Y-59180952D01*
X110325595Y-59228571D01*
X110373214Y-59323809D01*
X110373214Y-59561904D01*
X110325595Y-59657142D01*
X110277976Y-59704761D01*
X110182738Y-59752380D01*
X109897023Y-59752380D01*
X109801785Y-59704761D01*
X109754166Y-59657142D01*
G04 #@! TO.C,H4*
X163338095Y-124052380D02*
X163338095Y-123052380D01*
X163338095Y-123528571D02*
X163909523Y-123528571D01*
X163909523Y-124052380D02*
X163909523Y-123052380D01*
X164814285Y-123385714D02*
X164814285Y-124052380D01*
X164576190Y-123004761D02*
X164338095Y-123719047D01*
X164957142Y-123719047D01*
G04 #@! TO.C,J2*
X109186666Y-73152380D02*
X109186666Y-73866666D01*
X109139047Y-74009523D01*
X109043809Y-74104761D01*
X108900952Y-74152380D01*
X108805714Y-74152380D01*
X109615238Y-73247619D02*
X109662857Y-73200000D01*
X109758095Y-73152380D01*
X109996190Y-73152380D01*
X110091428Y-73200000D01*
X110139047Y-73247619D01*
X110186666Y-73342857D01*
X110186666Y-73438095D01*
X110139047Y-73580952D01*
X109567619Y-74152380D01*
X110186666Y-74152380D01*
G04 #@! TO.C,BUZZ*
X116395238Y-81728571D02*
X116538095Y-81776190D01*
X116585714Y-81823809D01*
X116633333Y-81919047D01*
X116633333Y-82061904D01*
X116585714Y-82157142D01*
X116538095Y-82204761D01*
X116442857Y-82252380D01*
X116061904Y-82252380D01*
X116061904Y-81252380D01*
X116395238Y-81252380D01*
X116490476Y-81300000D01*
X116538095Y-81347619D01*
X116585714Y-81442857D01*
X116585714Y-81538095D01*
X116538095Y-81633333D01*
X116490476Y-81680952D01*
X116395238Y-81728571D01*
X116061904Y-81728571D01*
X117061904Y-81252380D02*
X117061904Y-82061904D01*
X117109523Y-82157142D01*
X117157142Y-82204761D01*
X117252380Y-82252380D01*
X117442857Y-82252380D01*
X117538095Y-82204761D01*
X117585714Y-82157142D01*
X117633333Y-82061904D01*
X117633333Y-81252380D01*
X118014285Y-81252380D02*
X118680952Y-81252380D01*
X118014285Y-82252380D01*
X118680952Y-82252380D01*
X118966666Y-81252380D02*
X119633333Y-81252380D01*
X118966666Y-82252380D01*
X119633333Y-82252380D01*
G04 #@! TO.C,R4*
X137633333Y-118252380D02*
X137300000Y-117776190D01*
X137061904Y-118252380D02*
X137061904Y-117252380D01*
X137442857Y-117252380D01*
X137538095Y-117300000D01*
X137585714Y-117347619D01*
X137633333Y-117442857D01*
X137633333Y-117585714D01*
X137585714Y-117680952D01*
X137538095Y-117728571D01*
X137442857Y-117776190D01*
X137061904Y-117776190D01*
X138490476Y-117585714D02*
X138490476Y-118252380D01*
X138252380Y-117204761D02*
X138014285Y-117919047D01*
X138633333Y-117919047D01*
G04 #@! TO.C,STATE2*
X139995238Y-124104761D02*
X140138095Y-124152380D01*
X140376190Y-124152380D01*
X140471428Y-124104761D01*
X140519047Y-124057142D01*
X140566666Y-123961904D01*
X140566666Y-123866666D01*
X140519047Y-123771428D01*
X140471428Y-123723809D01*
X140376190Y-123676190D01*
X140185714Y-123628571D01*
X140090476Y-123580952D01*
X140042857Y-123533333D01*
X139995238Y-123438095D01*
X139995238Y-123342857D01*
X140042857Y-123247619D01*
X140090476Y-123200000D01*
X140185714Y-123152380D01*
X140423809Y-123152380D01*
X140566666Y-123200000D01*
X140852380Y-123152380D02*
X141423809Y-123152380D01*
X141138095Y-124152380D02*
X141138095Y-123152380D01*
X141709523Y-123866666D02*
X142185714Y-123866666D01*
X141614285Y-124152380D02*
X141947619Y-123152380D01*
X142280952Y-124152380D01*
X142471428Y-123152380D02*
X143042857Y-123152380D01*
X142757142Y-124152380D02*
X142757142Y-123152380D01*
X143376190Y-123628571D02*
X143709523Y-123628571D01*
X143852380Y-124152380D02*
X143376190Y-124152380D01*
X143376190Y-123152380D01*
X143852380Y-123152380D01*
X144233333Y-123247619D02*
X144280952Y-123200000D01*
X144376190Y-123152380D01*
X144614285Y-123152380D01*
X144709523Y-123200000D01*
X144757142Y-123247619D01*
X144804761Y-123342857D01*
X144804761Y-123438095D01*
X144757142Y-123580952D01*
X144185714Y-124152380D01*
X144804761Y-124152380D01*
G04 #@! TO.C,PA11*
X144057142Y-79852380D02*
X144057142Y-78852380D01*
X144438095Y-78852380D01*
X144533333Y-78900000D01*
X144580952Y-78947619D01*
X144628571Y-79042857D01*
X144628571Y-79185714D01*
X144580952Y-79280952D01*
X144533333Y-79328571D01*
X144438095Y-79376190D01*
X144057142Y-79376190D01*
X145009523Y-79566666D02*
X145485714Y-79566666D01*
X144914285Y-79852380D02*
X145247619Y-78852380D01*
X145580952Y-79852380D01*
X146438095Y-79852380D02*
X145866666Y-79852380D01*
X146152380Y-79852380D02*
X146152380Y-78852380D01*
X146057142Y-78995238D01*
X145961904Y-79090476D01*
X145866666Y-79138095D01*
X147390476Y-79852380D02*
X146819047Y-79852380D01*
X147104761Y-79852380D02*
X147104761Y-78852380D01*
X147009523Y-78995238D01*
X146914285Y-79090476D01*
X146819047Y-79138095D01*
G04 #@! TO.C,PC8*
X153061904Y-79852380D02*
X153061904Y-78852380D01*
X153442857Y-78852380D01*
X153538095Y-78900000D01*
X153585714Y-78947619D01*
X153633333Y-79042857D01*
X153633333Y-79185714D01*
X153585714Y-79280952D01*
X153538095Y-79328571D01*
X153442857Y-79376190D01*
X153061904Y-79376190D01*
X154633333Y-79757142D02*
X154585714Y-79804761D01*
X154442857Y-79852380D01*
X154347619Y-79852380D01*
X154204761Y-79804761D01*
X154109523Y-79709523D01*
X154061904Y-79614285D01*
X154014285Y-79423809D01*
X154014285Y-79280952D01*
X154061904Y-79090476D01*
X154109523Y-78995238D01*
X154204761Y-78900000D01*
X154347619Y-78852380D01*
X154442857Y-78852380D01*
X154585714Y-78900000D01*
X154633333Y-78947619D01*
X155204761Y-79280952D02*
X155109523Y-79233333D01*
X155061904Y-79185714D01*
X155014285Y-79090476D01*
X155014285Y-79042857D01*
X155061904Y-78947619D01*
X155109523Y-78900000D01*
X155204761Y-78852380D01*
X155395238Y-78852380D01*
X155490476Y-78900000D01*
X155538095Y-78947619D01*
X155585714Y-79042857D01*
X155585714Y-79090476D01*
X155538095Y-79185714D01*
X155490476Y-79233333D01*
X155395238Y-79280952D01*
X155204761Y-79280952D01*
X155109523Y-79328571D01*
X155061904Y-79376190D01*
X155014285Y-79471428D01*
X155014285Y-79661904D01*
X155061904Y-79757142D01*
X155109523Y-79804761D01*
X155204761Y-79852380D01*
X155395238Y-79852380D01*
X155490476Y-79804761D01*
X155538095Y-79757142D01*
X155585714Y-79661904D01*
X155585714Y-79471428D01*
X155538095Y-79376190D01*
X155490476Y-79328571D01*
X155395238Y-79280952D01*
G04 #@! TO.C,PC6*
X153061904Y-82352380D02*
X153061904Y-81352380D01*
X153442857Y-81352380D01*
X153538095Y-81400000D01*
X153585714Y-81447619D01*
X153633333Y-81542857D01*
X153633333Y-81685714D01*
X153585714Y-81780952D01*
X153538095Y-81828571D01*
X153442857Y-81876190D01*
X153061904Y-81876190D01*
X154633333Y-82257142D02*
X154585714Y-82304761D01*
X154442857Y-82352380D01*
X154347619Y-82352380D01*
X154204761Y-82304761D01*
X154109523Y-82209523D01*
X154061904Y-82114285D01*
X154014285Y-81923809D01*
X154014285Y-81780952D01*
X154061904Y-81590476D01*
X154109523Y-81495238D01*
X154204761Y-81400000D01*
X154347619Y-81352380D01*
X154442857Y-81352380D01*
X154585714Y-81400000D01*
X154633333Y-81447619D01*
X155490476Y-81352380D02*
X155300000Y-81352380D01*
X155204761Y-81400000D01*
X155157142Y-81447619D01*
X155061904Y-81590476D01*
X155014285Y-81780952D01*
X155014285Y-82161904D01*
X155061904Y-82257142D01*
X155109523Y-82304761D01*
X155204761Y-82352380D01*
X155395238Y-82352380D01*
X155490476Y-82304761D01*
X155538095Y-82257142D01*
X155585714Y-82161904D01*
X155585714Y-81923809D01*
X155538095Y-81828571D01*
X155490476Y-81780952D01*
X155395238Y-81733333D01*
X155204761Y-81733333D01*
X155109523Y-81780952D01*
X155061904Y-81828571D01*
X155014285Y-81923809D01*
G04 #@! TO.C,R1*
X106933333Y-69852380D02*
X106600000Y-69376190D01*
X106361904Y-69852380D02*
X106361904Y-68852380D01*
X106742857Y-68852380D01*
X106838095Y-68900000D01*
X106885714Y-68947619D01*
X106933333Y-69042857D01*
X106933333Y-69185714D01*
X106885714Y-69280952D01*
X106838095Y-69328571D01*
X106742857Y-69376190D01*
X106361904Y-69376190D01*
X107885714Y-69852380D02*
X107314285Y-69852380D01*
X107600000Y-69852380D02*
X107600000Y-68852380D01*
X107504761Y-68995238D01*
X107409523Y-69090476D01*
X107314285Y-69138095D01*
G04 #@! TO.C,PA15*
X128957142Y-89852380D02*
X128957142Y-88852380D01*
X129338095Y-88852380D01*
X129433333Y-88900000D01*
X129480952Y-88947619D01*
X129528571Y-89042857D01*
X129528571Y-89185714D01*
X129480952Y-89280952D01*
X129433333Y-89328571D01*
X129338095Y-89376190D01*
X128957142Y-89376190D01*
X129909523Y-89566666D02*
X130385714Y-89566666D01*
X129814285Y-89852380D02*
X130147619Y-88852380D01*
X130480952Y-89852380D01*
X131338095Y-89852380D02*
X130766666Y-89852380D01*
X131052380Y-89852380D02*
X131052380Y-88852380D01*
X130957142Y-88995238D01*
X130861904Y-89090476D01*
X130766666Y-89138095D01*
X132242857Y-88852380D02*
X131766666Y-88852380D01*
X131719047Y-89328571D01*
X131766666Y-89280952D01*
X131861904Y-89233333D01*
X132100000Y-89233333D01*
X132195238Y-89280952D01*
X132242857Y-89328571D01*
X132290476Y-89423809D01*
X132290476Y-89661904D01*
X132242857Y-89757142D01*
X132195238Y-89804761D01*
X132100000Y-89852380D01*
X131861904Y-89852380D01*
X131766666Y-89804761D01*
X131719047Y-89757142D01*
G04 #@! TO.C,STATE1*
X134595238Y-124104761D02*
X134738095Y-124152380D01*
X134976190Y-124152380D01*
X135071428Y-124104761D01*
X135119047Y-124057142D01*
X135166666Y-123961904D01*
X135166666Y-123866666D01*
X135119047Y-123771428D01*
X135071428Y-123723809D01*
X134976190Y-123676190D01*
X134785714Y-123628571D01*
X134690476Y-123580952D01*
X134642857Y-123533333D01*
X134595238Y-123438095D01*
X134595238Y-123342857D01*
X134642857Y-123247619D01*
X134690476Y-123200000D01*
X134785714Y-123152380D01*
X135023809Y-123152380D01*
X135166666Y-123200000D01*
X135452380Y-123152380D02*
X136023809Y-123152380D01*
X135738095Y-124152380D02*
X135738095Y-123152380D01*
X136309523Y-123866666D02*
X136785714Y-123866666D01*
X136214285Y-124152380D02*
X136547619Y-123152380D01*
X136880952Y-124152380D01*
X137071428Y-123152380D02*
X137642857Y-123152380D01*
X137357142Y-124152380D02*
X137357142Y-123152380D01*
X137976190Y-123628571D02*
X138309523Y-123628571D01*
X138452380Y-124152380D02*
X137976190Y-124152380D01*
X137976190Y-123152380D01*
X138452380Y-123152380D01*
X139404761Y-124152380D02*
X138833333Y-124152380D01*
X139119047Y-124152380D02*
X139119047Y-123152380D01*
X139023809Y-123295238D01*
X138928571Y-123390476D01*
X138833333Y-123438095D01*
G04 #@! TO.C,H3*
X114838095Y-124152380D02*
X114838095Y-123152380D01*
X114838095Y-123628571D02*
X115409523Y-123628571D01*
X115409523Y-124152380D02*
X115409523Y-123152380D01*
X115790476Y-123152380D02*
X116409523Y-123152380D01*
X116076190Y-123533333D01*
X116219047Y-123533333D01*
X116314285Y-123580952D01*
X116361904Y-123628571D01*
X116409523Y-123723809D01*
X116409523Y-123961904D01*
X116361904Y-124057142D01*
X116314285Y-124104761D01*
X116219047Y-124152380D01*
X115933333Y-124152380D01*
X115838095Y-124104761D01*
X115790476Y-124057142D01*
G04 #@! TO.C,J8*
X132166666Y-119752380D02*
X132166666Y-120466666D01*
X132119047Y-120609523D01*
X132023809Y-120704761D01*
X131880952Y-120752380D01*
X131785714Y-120752380D01*
X132785714Y-120180952D02*
X132690476Y-120133333D01*
X132642857Y-120085714D01*
X132595238Y-119990476D01*
X132595238Y-119942857D01*
X132642857Y-119847619D01*
X132690476Y-119800000D01*
X132785714Y-119752380D01*
X132976190Y-119752380D01*
X133071428Y-119800000D01*
X133119047Y-119847619D01*
X133166666Y-119942857D01*
X133166666Y-119990476D01*
X133119047Y-120085714D01*
X133071428Y-120133333D01*
X132976190Y-120180952D01*
X132785714Y-120180952D01*
X132690476Y-120228571D01*
X132642857Y-120276190D01*
X132595238Y-120371428D01*
X132595238Y-120561904D01*
X132642857Y-120657142D01*
X132690476Y-120704761D01*
X132785714Y-120752380D01*
X132976190Y-120752380D01*
X133071428Y-120704761D01*
X133119047Y-120657142D01*
X133166666Y-120561904D01*
X133166666Y-120371428D01*
X133119047Y-120276190D01*
X133071428Y-120228571D01*
X132976190Y-120180952D01*
G04 #@! TO.C,H2*
X170138095Y-69452380D02*
X170138095Y-68452380D01*
X170138095Y-68928571D02*
X170709523Y-68928571D01*
X170709523Y-69452380D02*
X170709523Y-68452380D01*
X171138095Y-68547619D02*
X171185714Y-68500000D01*
X171280952Y-68452380D01*
X171519047Y-68452380D01*
X171614285Y-68500000D01*
X171661904Y-68547619D01*
X171709523Y-68642857D01*
X171709523Y-68738095D01*
X171661904Y-68880952D01*
X171090476Y-69452380D01*
X171709523Y-69452380D01*
G04 #@! TO.C,Q1*
X109604761Y-50347619D02*
X109509523Y-50300000D01*
X109414285Y-50204761D01*
X109271428Y-50061904D01*
X109176190Y-50014285D01*
X109080952Y-50014285D01*
X109128571Y-50252380D02*
X109033333Y-50204761D01*
X108938095Y-50109523D01*
X108890476Y-49919047D01*
X108890476Y-49585714D01*
X108938095Y-49395238D01*
X109033333Y-49300000D01*
X109128571Y-49252380D01*
X109319047Y-49252380D01*
X109414285Y-49300000D01*
X109509523Y-49395238D01*
X109557142Y-49585714D01*
X109557142Y-49919047D01*
X109509523Y-50109523D01*
X109414285Y-50204761D01*
X109319047Y-50252380D01*
X109128571Y-50252380D01*
X110509523Y-50252380D02*
X109938095Y-50252380D01*
X110223809Y-50252380D02*
X110223809Y-49252380D01*
X110128571Y-49395238D01*
X110033333Y-49490476D01*
X109938095Y-49538095D01*
G04 #@! TO.C,SX2*
X157504761Y-120238095D02*
X157552380Y-120095238D01*
X157552380Y-119857142D01*
X157504761Y-119761904D01*
X157457142Y-119714285D01*
X157361904Y-119666666D01*
X157266666Y-119666666D01*
X157171428Y-119714285D01*
X157123809Y-119761904D01*
X157076190Y-119857142D01*
X157028571Y-120047619D01*
X156980952Y-120142857D01*
X156933333Y-120190476D01*
X156838095Y-120238095D01*
X156742857Y-120238095D01*
X156647619Y-120190476D01*
X156600000Y-120142857D01*
X156552380Y-120047619D01*
X156552380Y-119809523D01*
X156600000Y-119666666D01*
X156552380Y-119333333D02*
X157552380Y-118666666D01*
X156552380Y-118666666D02*
X157552380Y-119333333D01*
X156647619Y-118333333D02*
X156600000Y-118285714D01*
X156552380Y-118190476D01*
X156552380Y-117952380D01*
X156600000Y-117857142D01*
X156647619Y-117809523D01*
X156742857Y-117761904D01*
X156838095Y-117761904D01*
X156980952Y-117809523D01*
X157552380Y-118380952D01*
X157552380Y-117761904D01*
G04 #@! TO.C,GND*
X117638095Y-83800000D02*
X117542857Y-83752380D01*
X117400000Y-83752380D01*
X117257142Y-83800000D01*
X117161904Y-83895238D01*
X117114285Y-83990476D01*
X117066666Y-84180952D01*
X117066666Y-84323809D01*
X117114285Y-84514285D01*
X117161904Y-84609523D01*
X117257142Y-84704761D01*
X117400000Y-84752380D01*
X117495238Y-84752380D01*
X117638095Y-84704761D01*
X117685714Y-84657142D01*
X117685714Y-84323809D01*
X117495238Y-84323809D01*
X118114285Y-84752380D02*
X118114285Y-83752380D01*
X118685714Y-84752380D01*
X118685714Y-83752380D01*
X119161904Y-84752380D02*
X119161904Y-83752380D01*
X119400000Y-83752380D01*
X119542857Y-83800000D01*
X119638095Y-83895238D01*
X119685714Y-83990476D01*
X119733333Y-84180952D01*
X119733333Y-84323809D01*
X119685714Y-84514285D01*
X119638095Y-84609523D01*
X119542857Y-84704761D01*
X119400000Y-84752380D01*
X119161904Y-84752380D01*
G04 #@! TO.C,PB4*
X152552380Y-120190476D02*
X151552380Y-120190476D01*
X151552380Y-119809523D01*
X151600000Y-119714285D01*
X151647619Y-119666666D01*
X151742857Y-119619047D01*
X151885714Y-119619047D01*
X151980952Y-119666666D01*
X152028571Y-119714285D01*
X152076190Y-119809523D01*
X152076190Y-120190476D01*
X152028571Y-118857142D02*
X152076190Y-118714285D01*
X152123809Y-118666666D01*
X152219047Y-118619047D01*
X152361904Y-118619047D01*
X152457142Y-118666666D01*
X152504761Y-118714285D01*
X152552380Y-118809523D01*
X152552380Y-119190476D01*
X151552380Y-119190476D01*
X151552380Y-118857142D01*
X151600000Y-118761904D01*
X151647619Y-118714285D01*
X151742857Y-118666666D01*
X151838095Y-118666666D01*
X151933333Y-118714285D01*
X151980952Y-118761904D01*
X152028571Y-118857142D01*
X152028571Y-119190476D01*
X151885714Y-117761904D02*
X152552380Y-117761904D01*
X151504761Y-118000000D02*
X152219047Y-118238095D01*
X152219047Y-117619047D01*
G04 #@! TO.C,U3*
X150438095Y-73252380D02*
X150438095Y-74061904D01*
X150485714Y-74157142D01*
X150533333Y-74204761D01*
X150628571Y-74252380D01*
X150819047Y-74252380D01*
X150914285Y-74204761D01*
X150961904Y-74157142D01*
X151009523Y-74061904D01*
X151009523Y-73252380D01*
X151390476Y-73252380D02*
X152009523Y-73252380D01*
X151676190Y-73633333D01*
X151819047Y-73633333D01*
X151914285Y-73680952D01*
X151961904Y-73728571D01*
X152009523Y-73823809D01*
X152009523Y-74061904D01*
X151961904Y-74157142D01*
X151914285Y-74204761D01*
X151819047Y-74252380D01*
X151533333Y-74252380D01*
X151438095Y-74204761D01*
X151390476Y-74157142D01*
G04 #@! TO.C,U2*
X164438095Y-81852380D02*
X164438095Y-82661904D01*
X164485714Y-82757142D01*
X164533333Y-82804761D01*
X164628571Y-82852380D01*
X164819047Y-82852380D01*
X164914285Y-82804761D01*
X164961904Y-82757142D01*
X165009523Y-82661904D01*
X165009523Y-81852380D01*
X165438095Y-81947619D02*
X165485714Y-81900000D01*
X165580952Y-81852380D01*
X165819047Y-81852380D01*
X165914285Y-81900000D01*
X165961904Y-81947619D01*
X166009523Y-82042857D01*
X166009523Y-82138095D01*
X165961904Y-82280952D01*
X165390476Y-82852380D01*
X166009523Y-82852380D01*
G04 #@! TO.C,SX3*
X160004761Y-120238095D02*
X160052380Y-120095238D01*
X160052380Y-119857142D01*
X160004761Y-119761904D01*
X159957142Y-119714285D01*
X159861904Y-119666666D01*
X159766666Y-119666666D01*
X159671428Y-119714285D01*
X159623809Y-119761904D01*
X159576190Y-119857142D01*
X159528571Y-120047619D01*
X159480952Y-120142857D01*
X159433333Y-120190476D01*
X159338095Y-120238095D01*
X159242857Y-120238095D01*
X159147619Y-120190476D01*
X159100000Y-120142857D01*
X159052380Y-120047619D01*
X159052380Y-119809523D01*
X159100000Y-119666666D01*
X159052380Y-119333333D02*
X160052380Y-118666666D01*
X159052380Y-118666666D02*
X160052380Y-119333333D01*
X159052380Y-118380952D02*
X159052380Y-117761904D01*
X159433333Y-118095238D01*
X159433333Y-117952380D01*
X159480952Y-117857142D01*
X159528571Y-117809523D01*
X159623809Y-117761904D01*
X159861904Y-117761904D01*
X159957142Y-117809523D01*
X160004761Y-117857142D01*
X160052380Y-117952380D01*
X160052380Y-118238095D01*
X160004761Y-118333333D01*
X159957142Y-118380952D01*
G04 #@! TO.C,3V3*
X117161904Y-88852380D02*
X117780952Y-88852380D01*
X117447619Y-89233333D01*
X117590476Y-89233333D01*
X117685714Y-89280952D01*
X117733333Y-89328571D01*
X117780952Y-89423809D01*
X117780952Y-89661904D01*
X117733333Y-89757142D01*
X117685714Y-89804761D01*
X117590476Y-89852380D01*
X117304761Y-89852380D01*
X117209523Y-89804761D01*
X117161904Y-89757142D01*
X118066666Y-88852380D02*
X118400000Y-89852380D01*
X118733333Y-88852380D01*
X118971428Y-88852380D02*
X119590476Y-88852380D01*
X119257142Y-89233333D01*
X119400000Y-89233333D01*
X119495238Y-89280952D01*
X119542857Y-89328571D01*
X119590476Y-89423809D01*
X119590476Y-89661904D01*
X119542857Y-89757142D01*
X119495238Y-89804761D01*
X119400000Y-89852380D01*
X119114285Y-89852380D01*
X119019047Y-89804761D01*
X118971428Y-89757142D01*
G04 #@! TO.C,D1*
X111561904Y-62152380D02*
X111561904Y-61152380D01*
X111800000Y-61152380D01*
X111942857Y-61200000D01*
X112038095Y-61295238D01*
X112085714Y-61390476D01*
X112133333Y-61580952D01*
X112133333Y-61723809D01*
X112085714Y-61914285D01*
X112038095Y-62009523D01*
X111942857Y-62104761D01*
X111800000Y-62152380D01*
X111561904Y-62152380D01*
X113085714Y-62152380D02*
X112514285Y-62152380D01*
X112800000Y-62152380D02*
X112800000Y-61152380D01*
X112704761Y-61295238D01*
X112609523Y-61390476D01*
X112514285Y-61438095D01*
G04 #@! TO.C,J1*
X169066666Y-73352380D02*
X169066666Y-74066666D01*
X169019047Y-74209523D01*
X168923809Y-74304761D01*
X168780952Y-74352380D01*
X168685714Y-74352380D01*
X170066666Y-74352380D02*
X169495238Y-74352380D01*
X169780952Y-74352380D02*
X169780952Y-73352380D01*
X169685714Y-73495238D01*
X169590476Y-73590476D01*
X169495238Y-73638095D01*
G04 #@! TO.C,5V*
X118609523Y-86352380D02*
X118133333Y-86352380D01*
X118085714Y-86828571D01*
X118133333Y-86780952D01*
X118228571Y-86733333D01*
X118466666Y-86733333D01*
X118561904Y-86780952D01*
X118609523Y-86828571D01*
X118657142Y-86923809D01*
X118657142Y-87161904D01*
X118609523Y-87257142D01*
X118561904Y-87304761D01*
X118466666Y-87352380D01*
X118228571Y-87352380D01*
X118133333Y-87304761D01*
X118085714Y-87257142D01*
X118942857Y-86352380D02*
X119276190Y-87352380D01*
X119609523Y-86352380D01*
G04 #@! TO.C,J7*
X124966666Y-119752380D02*
X124966666Y-120466666D01*
X124919047Y-120609523D01*
X124823809Y-120704761D01*
X124680952Y-120752380D01*
X124585714Y-120752380D01*
X125347619Y-119752380D02*
X126014285Y-119752380D01*
X125585714Y-120752380D01*
G04 #@! TO.C,R2*
X106833333Y-65952380D02*
X106500000Y-65476190D01*
X106261904Y-65952380D02*
X106261904Y-64952380D01*
X106642857Y-64952380D01*
X106738095Y-65000000D01*
X106785714Y-65047619D01*
X106833333Y-65142857D01*
X106833333Y-65285714D01*
X106785714Y-65380952D01*
X106738095Y-65428571D01*
X106642857Y-65476190D01*
X106261904Y-65476190D01*
X107214285Y-65047619D02*
X107261904Y-65000000D01*
X107357142Y-64952380D01*
X107595238Y-64952380D01*
X107690476Y-65000000D01*
X107738095Y-65047619D01*
X107785714Y-65142857D01*
X107785714Y-65238095D01*
X107738095Y-65380952D01*
X107166666Y-65952380D01*
X107785714Y-65952380D01*
G04 #@! TO.C,H1*
X114738095Y-73852380D02*
X114738095Y-72852380D01*
X114738095Y-73328571D02*
X115309523Y-73328571D01*
X115309523Y-73852380D02*
X115309523Y-72852380D01*
X116309523Y-73852380D02*
X115738095Y-73852380D01*
X116023809Y-73852380D02*
X116023809Y-72852380D01*
X115928571Y-72995238D01*
X115833333Y-73090476D01*
X115738095Y-73138095D01*
G04 #@! TO.C,U1*
X135138095Y-90452380D02*
X135138095Y-91261904D01*
X135185714Y-91357142D01*
X135233333Y-91404761D01*
X135328571Y-91452380D01*
X135519047Y-91452380D01*
X135614285Y-91404761D01*
X135661904Y-91357142D01*
X135709523Y-91261904D01*
X135709523Y-90452380D01*
X136709523Y-91452380D02*
X136138095Y-91452380D01*
X136423809Y-91452380D02*
X136423809Y-90452380D01*
X136328571Y-90595238D01*
X136233333Y-90690476D01*
X136138095Y-90738095D01*
G04 #@! TO.C,PA0*
X128957143Y-87452380D02*
X128957143Y-86452380D01*
X129338095Y-86452380D01*
X129433333Y-86500000D01*
X129480952Y-86547619D01*
X129528571Y-86642857D01*
X129528571Y-86785714D01*
X129480952Y-86880952D01*
X129433333Y-86928571D01*
X129338095Y-86976190D01*
X128957143Y-86976190D01*
X129909524Y-87166666D02*
X130385714Y-87166666D01*
X129814286Y-87452380D02*
X130147619Y-86452380D01*
X130480952Y-87452380D01*
X131004762Y-86452380D02*
X131100000Y-86452380D01*
X131195238Y-86500000D01*
X131242857Y-86547619D01*
X131290476Y-86642857D01*
X131338095Y-86833333D01*
X131338095Y-87071428D01*
X131290476Y-87261904D01*
X131242857Y-87357142D01*
X131195238Y-87404761D01*
X131100000Y-87452380D01*
X131004762Y-87452380D01*
X130909524Y-87404761D01*
X130861905Y-87357142D01*
X130814286Y-87261904D01*
X130766667Y-87071428D01*
X130766667Y-86833333D01*
X130814286Y-86642857D01*
X130861905Y-86547619D01*
X130909524Y-86500000D01*
X131004762Y-86452380D01*
G04 #@! TO.C,R5*
X144233333Y-119052380D02*
X143900000Y-118576190D01*
X143661904Y-119052380D02*
X143661904Y-118052380D01*
X144042857Y-118052380D01*
X144138095Y-118100000D01*
X144185714Y-118147619D01*
X144233333Y-118242857D01*
X144233333Y-118385714D01*
X144185714Y-118480952D01*
X144138095Y-118528571D01*
X144042857Y-118576190D01*
X143661904Y-118576190D01*
X145138095Y-118052380D02*
X144661904Y-118052380D01*
X144614285Y-118528571D01*
X144661904Y-118480952D01*
X144757142Y-118433333D01*
X144995238Y-118433333D01*
X145090476Y-118480952D01*
X145138095Y-118528571D01*
X145185714Y-118623809D01*
X145185714Y-118861904D01*
X145138095Y-118957142D01*
X145090476Y-119004761D01*
X144995238Y-119052380D01*
X144757142Y-119052380D01*
X144661904Y-119004761D01*
X144614285Y-118957142D01*
G04 #@! TO.C,DX4*
X123785714Y-85352380D02*
X123785714Y-84352380D01*
X124023809Y-84352380D01*
X124166666Y-84400000D01*
X124261904Y-84495238D01*
X124309523Y-84590476D01*
X124357142Y-84780952D01*
X124357142Y-84923809D01*
X124309523Y-85114285D01*
X124261904Y-85209523D01*
X124166666Y-85304761D01*
X124023809Y-85352380D01*
X123785714Y-85352380D01*
X124690476Y-84352380D02*
X125357142Y-85352380D01*
X125357142Y-84352380D02*
X124690476Y-85352380D01*
X126166666Y-84685714D02*
X126166666Y-85352380D01*
X125928571Y-84304761D02*
X125690476Y-85019047D01*
X126309523Y-85019047D01*
G04 #@! TO.C,BZ1*
X129919047Y-58528571D02*
X130061904Y-58576190D01*
X130109523Y-58623809D01*
X130157142Y-58719047D01*
X130157142Y-58861904D01*
X130109523Y-58957142D01*
X130061904Y-59004761D01*
X129966666Y-59052380D01*
X129585714Y-59052380D01*
X129585714Y-58052380D01*
X129919047Y-58052380D01*
X130014285Y-58100000D01*
X130061904Y-58147619D01*
X130109523Y-58242857D01*
X130109523Y-58338095D01*
X130061904Y-58433333D01*
X130014285Y-58480952D01*
X129919047Y-58528571D01*
X129585714Y-58528571D01*
X130490476Y-58052380D02*
X131157142Y-58052380D01*
X130490476Y-59052380D01*
X131157142Y-59052380D01*
X132061904Y-59052380D02*
X131490476Y-59052380D01*
X131776190Y-59052380D02*
X131776190Y-58052380D01*
X131680952Y-58195238D01*
X131585714Y-58290476D01*
X131490476Y-58338095D01*
X117809047Y-60881428D02*
X118570952Y-60881428D01*
X118190000Y-61262380D02*
X118190000Y-60500476D01*
X122261904Y-69128571D02*
X122404761Y-69176190D01*
X122452380Y-69223809D01*
X122500000Y-69319047D01*
X122500000Y-69461904D01*
X122452380Y-69557142D01*
X122404761Y-69604761D01*
X122309523Y-69652380D01*
X121928571Y-69652380D01*
X121928571Y-68652380D01*
X122261904Y-68652380D01*
X122357142Y-68700000D01*
X122404761Y-68747619D01*
X122452380Y-68842857D01*
X122452380Y-68938095D01*
X122404761Y-69033333D01*
X122357142Y-69080952D01*
X122261904Y-69128571D01*
X121928571Y-69128571D01*
X122928571Y-68652380D02*
X122928571Y-69461904D01*
X122976190Y-69557142D01*
X123023809Y-69604761D01*
X123119047Y-69652380D01*
X123309523Y-69652380D01*
X123404761Y-69604761D01*
X123452380Y-69557142D01*
X123500000Y-69461904D01*
X123500000Y-68652380D01*
X123880952Y-68652380D02*
X124547619Y-68652380D01*
X123880952Y-69652380D01*
X124547619Y-69652380D01*
X124833333Y-68652380D02*
X125500000Y-68652380D01*
X124833333Y-69652380D01*
X125500000Y-69652380D01*
X125880952Y-69128571D02*
X126214285Y-69128571D01*
X126357142Y-69652380D02*
X125880952Y-69652380D01*
X125880952Y-68652380D01*
X126357142Y-68652380D01*
X127357142Y-69652380D02*
X127023809Y-69176190D01*
X126785714Y-69652380D02*
X126785714Y-68652380D01*
X127166666Y-68652380D01*
X127261904Y-68700000D01*
X127309523Y-68747619D01*
X127357142Y-68842857D01*
X127357142Y-68985714D01*
X127309523Y-69080952D01*
X127261904Y-69128571D01*
X127166666Y-69176190D01*
X126785714Y-69176190D01*
X128547619Y-69652380D02*
X128547619Y-68652380D01*
X128928571Y-68652380D01*
X129023809Y-68700000D01*
X129071428Y-68747619D01*
X129119047Y-68842857D01*
X129119047Y-68985714D01*
X129071428Y-69080952D01*
X129023809Y-69128571D01*
X128928571Y-69176190D01*
X128547619Y-69176190D01*
X129404761Y-68652380D02*
X129976190Y-68652380D01*
X129690476Y-69652380D02*
X129690476Y-68652380D01*
X130309523Y-69271428D02*
X131071428Y-69271428D01*
X131452380Y-68652380D02*
X132071428Y-68652380D01*
X131738095Y-69033333D01*
X131880952Y-69033333D01*
X131976190Y-69080952D01*
X132023809Y-69128571D01*
X132071428Y-69223809D01*
X132071428Y-69461904D01*
X132023809Y-69557142D01*
X131976190Y-69604761D01*
X131880952Y-69652380D01*
X131595238Y-69652380D01*
X131500000Y-69604761D01*
X131452380Y-69557142D01*
X133023809Y-69652380D02*
X132452380Y-69652380D01*
X132738095Y-69652380D02*
X132738095Y-68652380D01*
X132642857Y-68795238D01*
X132547619Y-68890476D01*
X132452380Y-68938095D01*
X133976190Y-69652380D02*
X133404761Y-69652380D01*
X133690476Y-69652380D02*
X133690476Y-68652380D01*
X133595238Y-68795238D01*
X133500000Y-68890476D01*
X133404761Y-68938095D01*
X134595238Y-68652380D02*
X134690476Y-68652380D01*
X134785714Y-68700000D01*
X134833333Y-68747619D01*
X134880952Y-68842857D01*
X134928571Y-69033333D01*
X134928571Y-69271428D01*
X134880952Y-69461904D01*
X134833333Y-69557142D01*
X134785714Y-69604761D01*
X134690476Y-69652380D01*
X134595238Y-69652380D01*
X134500000Y-69604761D01*
X134452380Y-69557142D01*
X134404761Y-69461904D01*
X134357142Y-69271428D01*
X134357142Y-69033333D01*
X134404761Y-68842857D01*
X134452380Y-68747619D01*
X134500000Y-68700000D01*
X134595238Y-68652380D01*
X135357142Y-69652380D02*
X135357142Y-68652380D01*
X135738095Y-68652380D01*
X135833333Y-68700000D01*
X135880952Y-68747619D01*
X135928571Y-68842857D01*
X135928571Y-68985714D01*
X135880952Y-69080952D01*
X135833333Y-69128571D01*
X135738095Y-69176190D01*
X135357142Y-69176190D01*
X136357142Y-69271428D02*
X137119047Y-69271428D01*
X137785714Y-68652380D02*
X137880952Y-68652380D01*
X137976190Y-68700000D01*
X138023809Y-68747619D01*
X138071428Y-68842857D01*
X138119047Y-69033333D01*
X138119047Y-69271428D01*
X138071428Y-69461904D01*
X138023809Y-69557142D01*
X137976190Y-69604761D01*
X137880952Y-69652380D01*
X137785714Y-69652380D01*
X137690476Y-69604761D01*
X137642857Y-69557142D01*
X137595238Y-69461904D01*
X137547619Y-69271428D01*
X137547619Y-69033333D01*
X137595238Y-68842857D01*
X137642857Y-68747619D01*
X137690476Y-68700000D01*
X137785714Y-68652380D01*
X139023809Y-68652380D02*
X138547619Y-68652380D01*
X138500000Y-69128571D01*
X138547619Y-69080952D01*
X138642857Y-69033333D01*
X138880952Y-69033333D01*
X138976190Y-69080952D01*
X139023809Y-69128571D01*
X139071428Y-69223809D01*
X139071428Y-69461904D01*
X139023809Y-69557142D01*
X138976190Y-69604761D01*
X138880952Y-69652380D01*
X138642857Y-69652380D01*
X138547619Y-69604761D01*
X138500000Y-69557142D01*
X140166666Y-69747619D02*
X140071428Y-69700000D01*
X139976190Y-69604761D01*
X139833333Y-69461904D01*
X139738095Y-69414285D01*
X139642857Y-69414285D01*
X139690476Y-69652380D02*
X139595238Y-69604761D01*
X139500000Y-69509523D01*
X139452380Y-69319047D01*
X139452380Y-68985714D01*
X139500000Y-68795238D01*
X139595238Y-68700000D01*
X139690476Y-68652380D01*
X139880952Y-68652380D01*
X139976190Y-68700000D01*
X140071428Y-68795238D01*
X140119047Y-68985714D01*
X140119047Y-69319047D01*
X140071428Y-69509523D01*
X139976190Y-69604761D01*
X139880952Y-69652380D01*
X139690476Y-69652380D01*
G04 #@! TO.C,PA12*
X144057142Y-82252380D02*
X144057142Y-81252380D01*
X144438095Y-81252380D01*
X144533333Y-81300000D01*
X144580952Y-81347619D01*
X144628571Y-81442857D01*
X144628571Y-81585714D01*
X144580952Y-81680952D01*
X144533333Y-81728571D01*
X144438095Y-81776190D01*
X144057142Y-81776190D01*
X145009523Y-81966666D02*
X145485714Y-81966666D01*
X144914285Y-82252380D02*
X145247619Y-81252380D01*
X145580952Y-82252380D01*
X146438095Y-82252380D02*
X145866666Y-82252380D01*
X146152380Y-82252380D02*
X146152380Y-81252380D01*
X146057142Y-81395238D01*
X145961904Y-81490476D01*
X145866666Y-81538095D01*
X146819047Y-81347619D02*
X146866666Y-81300000D01*
X146961904Y-81252380D01*
X147200000Y-81252380D01*
X147295238Y-81300000D01*
X147342857Y-81347619D01*
X147390476Y-81442857D01*
X147390476Y-81538095D01*
X147342857Y-81680952D01*
X146771428Y-82252380D01*
X147390476Y-82252380D01*
G04 #@! TO.C,PB14*
X152985714Y-124152380D02*
X152985714Y-123152380D01*
X153366666Y-123152380D01*
X153461904Y-123200000D01*
X153509523Y-123247619D01*
X153557142Y-123342857D01*
X153557142Y-123485714D01*
X153509523Y-123580952D01*
X153461904Y-123628571D01*
X153366666Y-123676190D01*
X152985714Y-123676190D01*
X154319047Y-123628571D02*
X154461904Y-123676190D01*
X154509523Y-123723809D01*
X154557142Y-123819047D01*
X154557142Y-123961904D01*
X154509523Y-124057142D01*
X154461904Y-124104761D01*
X154366666Y-124152380D01*
X153985714Y-124152380D01*
X153985714Y-123152380D01*
X154319047Y-123152380D01*
X154414285Y-123200000D01*
X154461904Y-123247619D01*
X154509523Y-123342857D01*
X154509523Y-123438095D01*
X154461904Y-123533333D01*
X154414285Y-123580952D01*
X154319047Y-123628571D01*
X153985714Y-123628571D01*
X155509523Y-124152380D02*
X154938095Y-124152380D01*
X155223809Y-124152380D02*
X155223809Y-123152380D01*
X155128571Y-123295238D01*
X155033333Y-123390476D01*
X154938095Y-123438095D01*
X156366666Y-123485714D02*
X156366666Y-124152380D01*
X156128571Y-123104761D02*
X155890476Y-123819047D01*
X156509523Y-123819047D01*
G04 #@! TO.C,DX5*
X123785714Y-91652380D02*
X123785714Y-90652380D01*
X124023809Y-90652380D01*
X124166666Y-90700000D01*
X124261904Y-90795238D01*
X124309523Y-90890476D01*
X124357142Y-91080952D01*
X124357142Y-91223809D01*
X124309523Y-91414285D01*
X124261904Y-91509523D01*
X124166666Y-91604761D01*
X124023809Y-91652380D01*
X123785714Y-91652380D01*
X124690476Y-90652380D02*
X125357142Y-91652380D01*
X125357142Y-90652380D02*
X124690476Y-91652380D01*
X126214285Y-90652380D02*
X125738095Y-90652380D01*
X125690476Y-91128571D01*
X125738095Y-91080952D01*
X125833333Y-91033333D01*
X126071428Y-91033333D01*
X126166666Y-91080952D01*
X126214285Y-91128571D01*
X126261904Y-91223809D01*
X126261904Y-91461904D01*
X126214285Y-91557142D01*
X126166666Y-91604761D01*
X126071428Y-91652380D01*
X125833333Y-91652380D01*
X125738095Y-91604761D01*
X125690476Y-91557142D01*
D12*
G04 #@! TO.C,R3*
X109332776Y-58392500D02*
X109842224Y-58392500D01*
X109332776Y-57347500D02*
X109842224Y-57347500D01*
G04 #@! TO.C,J2*
X106920000Y-76030000D02*
X106920000Y-74700000D01*
X112120000Y-74700000D02*
X112120000Y-123080000D01*
X109520000Y-74700000D02*
X112120000Y-74700000D01*
X109520000Y-77300000D02*
X109520000Y-74700000D01*
X106920000Y-123080000D02*
X112120000Y-123080000D01*
X106920000Y-74700000D02*
X108250000Y-74700000D01*
X106920000Y-77300000D02*
X109520000Y-77300000D01*
X106920000Y-77300000D02*
X106920000Y-123080000D01*
G04 #@! TO.C,R4*
X136759724Y-118677500D02*
X136250276Y-118677500D01*
X136759724Y-119722500D02*
X136250276Y-119722500D01*
G04 #@! TO.C,STATE2*
X143490000Y-122735000D02*
X143490000Y-121265000D01*
D11*
X143490000Y-121265000D02*
X141030000Y-121265000D01*
X141030000Y-122735000D02*
X143490000Y-122735000D01*
X144430000Y-122735000D02*
X144430000Y-121300000D01*
X143490000Y-121265000D02*
X144430000Y-122017500D01*
X144430000Y-122017500D02*
X143490000Y-122735000D01*
X143490000Y-122735000D02*
X143490000Y-121265000D01*
G36*
X144430000Y-122017500D02*
G01*
X143490000Y-122735000D01*
X143490000Y-121265000D01*
X144430000Y-122017500D01*
G37*
X144430000Y-122017500D02*
X143490000Y-122735000D01*
X143490000Y-121265000D01*
X144430000Y-122017500D01*
D12*
G04 #@! TO.C,R1*
X109332776Y-68777500D02*
X109842224Y-68777500D01*
X109332776Y-69822500D02*
X109842224Y-69822500D01*
D11*
G04 #@! TO.C,STATE1*
X135705000Y-122735000D02*
X138165000Y-122735000D01*
X139105000Y-122735000D02*
X139105000Y-121300000D01*
X138165000Y-121265000D02*
X135705000Y-121265000D01*
D12*
X138165000Y-122735000D02*
X138165000Y-121265000D01*
D11*
X138165000Y-121265000D02*
X139105000Y-122017500D01*
X139105000Y-122017500D02*
X138165000Y-122735000D01*
X138165000Y-122735000D02*
X138165000Y-121265000D01*
G36*
X139105000Y-122017500D02*
G01*
X138165000Y-122735000D01*
X138165000Y-121265000D01*
X139105000Y-122017500D01*
G37*
X139105000Y-122017500D02*
X138165000Y-122735000D01*
X138165000Y-121265000D01*
X139105000Y-122017500D01*
G04 #@! TO.C,Q1*
X107587500Y-54290000D02*
X107587500Y-50690000D01*
X107587500Y-50690000D02*
X111587500Y-50690000D01*
X111587500Y-50690000D02*
X111587500Y-54290000D01*
G04 #@! TO.C,U3*
X168090000Y-72900000D02*
X150310000Y-72900000D01*
X150310000Y-72900000D02*
X150310000Y-47500000D01*
X150310000Y-47500000D02*
X168090000Y-47500000D01*
X168090000Y-47500000D02*
X168090000Y-72900000D01*
G04 #@! TO.C,U2*
X140560000Y-117380000D02*
X165960000Y-117380000D01*
X165960000Y-117380000D02*
X165960000Y-83344000D01*
X165960000Y-83344000D02*
X140560000Y-83344000D01*
X140560000Y-83344000D02*
X140560000Y-117380000D01*
D12*
G04 #@! TO.C,D1*
X111237500Y-62530000D02*
X108687500Y-62530000D01*
X111237500Y-62530000D02*
X111237500Y-60830000D01*
X111237500Y-60830000D02*
X108687500Y-60830000D01*
G04 #@! TO.C,J1*
X167880000Y-74700000D02*
X169210000Y-74700000D01*
X173080000Y-74700000D02*
X173080000Y-123080000D01*
X167880000Y-76030000D02*
X167880000Y-74700000D01*
X167880000Y-77300000D02*
X167880000Y-123080000D01*
X170480000Y-77300000D02*
X170480000Y-74700000D01*
X167880000Y-123080000D02*
X173080000Y-123080000D01*
X167880000Y-77300000D02*
X170480000Y-77300000D01*
X170480000Y-74700000D02*
X173080000Y-74700000D01*
G04 #@! TO.C,R2*
X109842224Y-64967500D02*
X109332776Y-64967500D01*
X109842224Y-66012500D02*
X109332776Y-66012500D01*
D11*
G04 #@! TO.C,U1*
X113890000Y-117380000D02*
X136750000Y-117380000D01*
X136750000Y-117380000D02*
X136750000Y-91980000D01*
X136750000Y-91980000D02*
X113890000Y-91980000D01*
X113890000Y-91980000D02*
X113890000Y-117380000D01*
D12*
G04 #@! TO.C,R5*
X141575276Y-118677500D02*
X142084724Y-118677500D01*
X141575276Y-119722500D02*
X142084724Y-119722500D01*
G04 #@! TO.C,G\u002A\u002A\u002A*
G36*
X120710907Y-64149450D02*
G01*
X120728178Y-64030694D01*
X120748027Y-63898767D01*
X120769993Y-63756599D01*
X120793615Y-63607118D01*
X120818433Y-63453252D01*
X120843986Y-63297931D01*
X120869814Y-63144082D01*
X120895456Y-62994635D01*
X120920452Y-62852517D01*
X120944341Y-62720658D01*
X120956755Y-62654030D01*
X120999441Y-62442336D01*
X121042985Y-62256799D01*
X121088071Y-62095339D01*
X121135386Y-61955876D01*
X121185613Y-61836330D01*
X121239440Y-61734622D01*
X121280337Y-61671928D01*
X121367152Y-61569974D01*
X121469342Y-61487452D01*
X121590059Y-61422297D01*
X121732453Y-61372445D01*
X121741086Y-61370077D01*
X121786407Y-61358266D01*
X121830839Y-61347932D01*
X121877750Y-61338634D01*
X121930510Y-61329928D01*
X121992487Y-61321372D01*
X122067052Y-61312525D01*
X122157572Y-61302944D01*
X122267417Y-61292186D01*
X122399956Y-61279809D01*
X122494497Y-61271175D01*
X122954223Y-61231387D01*
X123430823Y-61194028D01*
X123925340Y-61159048D01*
X124438819Y-61126395D01*
X124972303Y-61096020D01*
X125526838Y-61067872D01*
X126103466Y-61041900D01*
X126703232Y-61018055D01*
X127327180Y-60996285D01*
X127976354Y-60976540D01*
X128651798Y-60958769D01*
X129229239Y-60945566D01*
X129683279Y-60936519D01*
X130145426Y-60928606D01*
X130614362Y-60921811D01*
X131088773Y-60916118D01*
X131567342Y-60911513D01*
X132048755Y-60907981D01*
X132531694Y-60905505D01*
X133014846Y-60904070D01*
X133496893Y-60903662D01*
X133976520Y-60904264D01*
X134452412Y-60905862D01*
X134923253Y-60908440D01*
X135387727Y-60911982D01*
X135844518Y-60916474D01*
X136292311Y-60921900D01*
X136729790Y-60928244D01*
X137155639Y-60935492D01*
X137568543Y-60943627D01*
X137967185Y-60952635D01*
X138350251Y-60962500D01*
X138716424Y-60973207D01*
X139064389Y-60984741D01*
X139392830Y-60997085D01*
X139700431Y-61010226D01*
X139985877Y-61024146D01*
X140247852Y-61038832D01*
X140485040Y-61054268D01*
X140696126Y-61070437D01*
X140812640Y-61080761D01*
X140935173Y-61092943D01*
X141032962Y-61104516D01*
X141109461Y-61116415D01*
X141168121Y-61129573D01*
X141212395Y-61144924D01*
X141245735Y-61163402D01*
X141271594Y-61185940D01*
X141291102Y-61210154D01*
X141333147Y-61290679D01*
X141362997Y-61395933D01*
X141380701Y-61525200D01*
X141386307Y-61677762D01*
X141379864Y-61852904D01*
X141361420Y-62049909D01*
X141331024Y-62268060D01*
X141288724Y-62506641D01*
X141234569Y-62764935D01*
X141168607Y-63042226D01*
X141166663Y-63049968D01*
X141132846Y-63180162D01*
X141093486Y-63324312D01*
X141049554Y-63479360D01*
X141002020Y-63642246D01*
X140951856Y-63809910D01*
X140900032Y-63979293D01*
X140847519Y-64147337D01*
X140795288Y-64310981D01*
X140744310Y-64467166D01*
X140695555Y-64612834D01*
X140649994Y-64744923D01*
X140608599Y-64860376D01*
X140572340Y-64956133D01*
X140542187Y-65029134D01*
X140530672Y-65054155D01*
X140434281Y-65222478D01*
X140317170Y-65371617D01*
X140179296Y-65501619D01*
X140020613Y-65612533D01*
X140015821Y-65615393D01*
X139939692Y-65658042D01*
X139861213Y-65696270D01*
X139777614Y-65730777D01*
X139686128Y-65762263D01*
X139583986Y-65791430D01*
X139468418Y-65818978D01*
X139336658Y-65845608D01*
X139185935Y-65872021D01*
X139013481Y-65898917D01*
X138816528Y-65926997D01*
X138747481Y-65936401D01*
X138389921Y-65981848D01*
X138016522Y-66023802D01*
X137626024Y-66062343D01*
X137217170Y-66097555D01*
X136788702Y-66129519D01*
X136339359Y-66158318D01*
X135867885Y-66184033D01*
X135373021Y-66206748D01*
X134853508Y-66226544D01*
X134308087Y-66243504D01*
X133881435Y-66254408D01*
X133776380Y-66256467D01*
X133648218Y-66258319D01*
X133499417Y-66259964D01*
X133332446Y-66261402D01*
X133149777Y-66262635D01*
X132953877Y-66263663D01*
X132747217Y-66264487D01*
X132532267Y-66265107D01*
X132311495Y-66265525D01*
X132087372Y-66265741D01*
X131862368Y-66265756D01*
X131638951Y-66265570D01*
X131419592Y-66265184D01*
X131206760Y-66264599D01*
X131002924Y-66263816D01*
X130810556Y-66262835D01*
X130632123Y-66261657D01*
X130470096Y-66260282D01*
X130326944Y-66258713D01*
X130205137Y-66256948D01*
X130107144Y-66254989D01*
X130048138Y-66253303D01*
X129624281Y-66236844D01*
X129194021Y-66216716D01*
X128758905Y-66193100D01*
X128320480Y-66166174D01*
X127880292Y-66136119D01*
X127439891Y-66103114D01*
X127000821Y-66067339D01*
X126564631Y-66028972D01*
X126132868Y-65988195D01*
X125707079Y-65945186D01*
X125288810Y-65900124D01*
X124879610Y-65853191D01*
X124481025Y-65804564D01*
X124094602Y-65754425D01*
X123721889Y-65702952D01*
X123364432Y-65650325D01*
X123023779Y-65596723D01*
X122701477Y-65542327D01*
X122399073Y-65487315D01*
X122118114Y-65431868D01*
X121860148Y-65376165D01*
X121626721Y-65320386D01*
X121419380Y-65264710D01*
X121346086Y-65243112D01*
X121231400Y-65205633D01*
X121138746Y-65168454D01*
X121062139Y-65128350D01*
X120995594Y-65082094D01*
X120933124Y-65026459D01*
X120920218Y-65013541D01*
X120821067Y-64893857D01*
X120747083Y-64762974D01*
X120699073Y-64622812D01*
X120677843Y-64475293D01*
X120676807Y-64434203D01*
X120679163Y-64397413D01*
X120685938Y-64335738D01*
X120691390Y-64293261D01*
X121172328Y-64293261D01*
X121174286Y-64399279D01*
X121184417Y-64485558D01*
X121204660Y-64559901D01*
X121236955Y-64630110D01*
X121269263Y-64683250D01*
X121334927Y-64760963D01*
X121423144Y-64832019D01*
X121528390Y-64892778D01*
X121645142Y-64939596D01*
X121669142Y-64946896D01*
X121750748Y-64967974D01*
X121858471Y-64991879D01*
X121990363Y-65018318D01*
X122144476Y-65046996D01*
X122318862Y-65077619D01*
X122511572Y-65109895D01*
X122720659Y-65143530D01*
X122944175Y-65178229D01*
X123180172Y-65213700D01*
X123426701Y-65249648D01*
X123681815Y-65285780D01*
X123943565Y-65321803D01*
X124210004Y-65357422D01*
X124479183Y-65392344D01*
X124749155Y-65426275D01*
X125017972Y-65458922D01*
X125233575Y-65484228D01*
X126094173Y-65578735D01*
X126931951Y-65660787D01*
X127749368Y-65730512D01*
X128548883Y-65788038D01*
X129332956Y-65833494D01*
X130104046Y-65867006D01*
X130864612Y-65888704D01*
X131617113Y-65898714D01*
X132364008Y-65897166D01*
X132977821Y-65887275D01*
X133835737Y-65862596D01*
X134668954Y-65827573D01*
X135479085Y-65782118D01*
X136267741Y-65726142D01*
X136952307Y-65667456D01*
X137225266Y-65641116D01*
X137493679Y-65613303D01*
X137755777Y-65584278D01*
X138009790Y-65554307D01*
X138253949Y-65523653D01*
X138486485Y-65492581D01*
X138705629Y-65461353D01*
X138909611Y-65430233D01*
X139096663Y-65399487D01*
X139265014Y-65369376D01*
X139412896Y-65340166D01*
X139538540Y-65312120D01*
X139640176Y-65285501D01*
X139716036Y-65260575D01*
X139736114Y-65252323D01*
X139814868Y-65204263D01*
X139896198Y-65129086D01*
X139979559Y-65027742D01*
X140064404Y-64901177D01*
X140150187Y-64750341D01*
X140236360Y-64576181D01*
X140322377Y-64379645D01*
X140407692Y-64161683D01*
X140476926Y-63967093D01*
X140551632Y-63738233D01*
X140622879Y-63500512D01*
X140689797Y-63257856D01*
X140751518Y-63014189D01*
X140807173Y-62773436D01*
X140855893Y-62539521D01*
X140896809Y-62316368D01*
X140929053Y-62107902D01*
X140951754Y-61918048D01*
X140963038Y-61771596D01*
X140966183Y-61673851D01*
X140963285Y-61599801D01*
X140953287Y-61545346D01*
X140935132Y-61506389D01*
X140907761Y-61478828D01*
X140883915Y-61464783D01*
X140825911Y-61443766D01*
X140739954Y-61423726D01*
X140626312Y-61404686D01*
X140485254Y-61386671D01*
X140317049Y-61369703D01*
X140121966Y-61353806D01*
X139900272Y-61339002D01*
X139652237Y-61325316D01*
X139378129Y-61312771D01*
X139078217Y-61301389D01*
X138957199Y-61297364D01*
X138794422Y-61292793D01*
X138605080Y-61288629D01*
X138390845Y-61284867D01*
X138153386Y-61281500D01*
X137894374Y-61278525D01*
X137615479Y-61275937D01*
X137318372Y-61273729D01*
X137004724Y-61271899D01*
X136676204Y-61270440D01*
X136334484Y-61269347D01*
X135981233Y-61268616D01*
X135618123Y-61268242D01*
X135246823Y-61268219D01*
X134869005Y-61268543D01*
X134486338Y-61269209D01*
X134100493Y-61270212D01*
X133713140Y-61271547D01*
X133325951Y-61273208D01*
X132940595Y-61275192D01*
X132558743Y-61277492D01*
X132182066Y-61280104D01*
X131812233Y-61283024D01*
X131450915Y-61286245D01*
X131099784Y-61289764D01*
X130760508Y-61293575D01*
X130434760Y-61297673D01*
X130124208Y-61302054D01*
X129830525Y-61306712D01*
X129555379Y-61311642D01*
X129300442Y-61316839D01*
X129067384Y-61322299D01*
X128883324Y-61327270D01*
X128442033Y-61340532D01*
X128005710Y-61354554D01*
X127575422Y-61369279D01*
X127152240Y-61384647D01*
X126737233Y-61400597D01*
X126331470Y-61417071D01*
X125936020Y-61434009D01*
X125551951Y-61451352D01*
X125180334Y-61469040D01*
X124822237Y-61487014D01*
X124478730Y-61505213D01*
X124150881Y-61523579D01*
X123839759Y-61542053D01*
X123546434Y-61560574D01*
X123271975Y-61579083D01*
X123017451Y-61597521D01*
X122783931Y-61615828D01*
X122572484Y-61633945D01*
X122384180Y-61651812D01*
X122220087Y-61669370D01*
X122081274Y-61686559D01*
X121968811Y-61703319D01*
X121901501Y-61715759D01*
X121851699Y-61725864D01*
X121813433Y-61733194D01*
X121794447Y-61736269D01*
X121794005Y-61736287D01*
X121772103Y-61748122D01*
X121742494Y-61779752D01*
X121709510Y-61825433D01*
X121677488Y-61879419D01*
X121660827Y-61912785D01*
X121617292Y-62018064D01*
X121572075Y-62147803D01*
X121525930Y-62298330D01*
X121479610Y-62465972D01*
X121433870Y-62647056D01*
X121389463Y-62837912D01*
X121347142Y-63034865D01*
X121307662Y-63234243D01*
X121271775Y-63432375D01*
X121240235Y-63625587D01*
X121213797Y-63810207D01*
X121193213Y-63982563D01*
X121179238Y-64138982D01*
X121172624Y-64275792D01*
X121172328Y-64293261D01*
X120691390Y-64293261D01*
X120696673Y-64252108D01*
X120710907Y-64149450D01*
G37*
G36*
X128052378Y-63261868D02*
G01*
X128063180Y-63213218D01*
X128077602Y-63171579D01*
X128136174Y-63060261D01*
X128221102Y-62958708D01*
X128332210Y-62867029D01*
X128469319Y-62785330D01*
X128632253Y-62713720D01*
X128820832Y-62652303D01*
X129017455Y-62604765D01*
X129167582Y-62581499D01*
X129335350Y-62569178D01*
X129512453Y-62567612D01*
X129690582Y-62576610D01*
X129861431Y-62595980D01*
X130016690Y-62625532D01*
X130026671Y-62627955D01*
X130189116Y-62678094D01*
X130336721Y-62743753D01*
X130467917Y-62823089D01*
X130581137Y-62914259D01*
X130674813Y-63015419D01*
X130747377Y-63124726D01*
X130797260Y-63240337D01*
X130822895Y-63360408D01*
X130822714Y-63483096D01*
X130811218Y-63550269D01*
X130769381Y-63672146D01*
X130703102Y-63782519D01*
X130612111Y-63881563D01*
X130496136Y-63969457D01*
X130354909Y-64046378D01*
X130188157Y-64112504D01*
X129995612Y-64168010D01*
X129809176Y-64207390D01*
X129725937Y-64218771D01*
X129622478Y-64227207D01*
X129506684Y-64232482D01*
X129386442Y-64234382D01*
X129269637Y-64232691D01*
X129164155Y-64227192D01*
X129144525Y-64225564D01*
X129074021Y-64216739D01*
X128989187Y-64202295D01*
X128898764Y-64184097D01*
X128811491Y-64164007D01*
X128736109Y-64143891D01*
X128688061Y-64128220D01*
X128625698Y-64101656D01*
X128552809Y-64065885D01*
X128477442Y-64025334D01*
X128407641Y-63984432D01*
X128351454Y-63947608D01*
X128329454Y-63930850D01*
X128266517Y-63870403D01*
X128201117Y-63793982D01*
X128141332Y-63711809D01*
X128095849Y-63635298D01*
X128072546Y-63587913D01*
X128057796Y-63550186D01*
X128049654Y-63512854D01*
X128046172Y-63466657D01*
X128045404Y-63402330D01*
X128045401Y-63395276D01*
X128045542Y-63388216D01*
X129018716Y-63388216D01*
X129021517Y-63454373D01*
X129031249Y-63507284D01*
X129051146Y-63561699D01*
X129062065Y-63585881D01*
X129122570Y-63696244D01*
X129189159Y-63779694D01*
X129263038Y-63837129D01*
X129345412Y-63869450D01*
X129437489Y-63877557D01*
X129452019Y-63876754D01*
X129517374Y-63866068D01*
X129581643Y-63846068D01*
X129600268Y-63837795D01*
X129659568Y-63796581D01*
X129718250Y-63735194D01*
X129770457Y-63661211D01*
X129810332Y-63582206D01*
X129821098Y-63552232D01*
X129839348Y-63457123D01*
X129840287Y-63352244D01*
X129824550Y-63249627D01*
X129801447Y-63179678D01*
X129758148Y-63107098D01*
X129697000Y-63040959D01*
X129623847Y-62984908D01*
X129544535Y-62942593D01*
X129464908Y-62917660D01*
X129390811Y-62913756D01*
X129378268Y-62915613D01*
X129280831Y-62947597D01*
X129194789Y-63005164D01*
X129120721Y-63087814D01*
X129061609Y-63189882D01*
X129037213Y-63247003D01*
X129024069Y-63295775D01*
X129019091Y-63350467D01*
X129018716Y-63388216D01*
X128045542Y-63388216D01*
X128046915Y-63319337D01*
X128052378Y-63261868D01*
G37*
G36*
X121673079Y-63430358D02*
G01*
X121681917Y-63233662D01*
X121716916Y-63037899D01*
X121778547Y-62845569D01*
X121816321Y-62758191D01*
X121881708Y-62630941D01*
X121951617Y-62521413D01*
X122033367Y-62419232D01*
X122119036Y-62329008D01*
X122271214Y-62195441D01*
X122434282Y-62086639D01*
X122611436Y-62000792D01*
X122805875Y-61936089D01*
X122819233Y-61932560D01*
X122875236Y-61919107D01*
X122926919Y-61909859D01*
X122981772Y-61904121D01*
X123047288Y-61901199D01*
X123130958Y-61900397D01*
X123165148Y-61900485D01*
X123256321Y-61901535D01*
X123327022Y-61904282D01*
X123385005Y-61909542D01*
X123438021Y-61918131D01*
X123493823Y-61930864D01*
X123521027Y-61937929D01*
X123716005Y-62003983D01*
X123897563Y-62094003D01*
X124063954Y-62206238D01*
X124213432Y-62338943D01*
X124344249Y-62490370D01*
X124454658Y-62658770D01*
X124542913Y-62842396D01*
X124602015Y-63019445D01*
X124615902Y-63073955D01*
X124625786Y-63122226D01*
X124632330Y-63171074D01*
X124636195Y-63227314D01*
X124638043Y-63297762D01*
X124638538Y-63389232D01*
X124638539Y-63395276D01*
X124638118Y-63487844D01*
X124636397Y-63559082D01*
X124632695Y-63615889D01*
X124626329Y-63665166D01*
X124616614Y-63713815D01*
X124602869Y-63768734D01*
X124600806Y-63776487D01*
X124534064Y-63973350D01*
X124443629Y-64156100D01*
X124331125Y-64323106D01*
X124198176Y-64472737D01*
X124046406Y-64603361D01*
X123877440Y-64713347D01*
X123692902Y-64801063D01*
X123525181Y-64856848D01*
X123427856Y-64876602D01*
X123312227Y-64889483D01*
X123187428Y-64895296D01*
X123062595Y-64893843D01*
X122946859Y-64884927D01*
X122861590Y-64871146D01*
X122772858Y-64850303D01*
X122698068Y-64828403D01*
X122626581Y-64801654D01*
X122547756Y-64766261D01*
X122494497Y-64740286D01*
X122396292Y-64687456D01*
X122309406Y-64630835D01*
X122224365Y-64563678D01*
X122142984Y-64489989D01*
X122004772Y-64340244D01*
X121889888Y-64176418D01*
X121798805Y-64001015D01*
X121731995Y-63816536D01*
X121710442Y-63718646D01*
X121881981Y-63718646D01*
X121902677Y-63781589D01*
X121916430Y-63804575D01*
X121937651Y-63832882D01*
X121973595Y-63877643D01*
X122020342Y-63934107D01*
X122073969Y-63997522D01*
X122116155Y-64046568D01*
X122279773Y-64235353D01*
X122433504Y-64235353D01*
X122372228Y-64166071D01*
X122352425Y-64143971D01*
X122475978Y-64143971D01*
X122481668Y-64155674D01*
X122501135Y-64180978D01*
X122513138Y-64195044D01*
X122554698Y-64242413D01*
X122881197Y-64234081D01*
X122974269Y-64231449D01*
X123057561Y-64228601D01*
X123127041Y-64225717D01*
X123178677Y-64222974D01*
X123208435Y-64220551D01*
X123214075Y-64219371D01*
X123206539Y-64208641D01*
X123180993Y-64185308D01*
X123142147Y-64153533D01*
X123121048Y-64137182D01*
X123021642Y-64061372D01*
X122751010Y-64100820D01*
X122667127Y-64113198D01*
X122593367Y-64124369D01*
X122534075Y-64133652D01*
X122493596Y-64140365D01*
X122476275Y-64143826D01*
X122475978Y-64143971D01*
X122352425Y-64143971D01*
X122340568Y-64130739D01*
X122294936Y-64080424D01*
X122240554Y-64020856D01*
X122206125Y-63983346D01*
X122332628Y-63983346D01*
X122371206Y-64031695D01*
X122401182Y-64061573D01*
X122430009Y-64078430D01*
X122438022Y-64079828D01*
X122460614Y-64077976D01*
X122506184Y-64072964D01*
X122569723Y-64065387D01*
X122646222Y-64055841D01*
X122725367Y-64045621D01*
X122819304Y-64032916D01*
X122889029Y-64022393D01*
X122938407Y-64013197D01*
X122971300Y-64004472D01*
X122991573Y-63995365D01*
X123003089Y-63985021D01*
X123003812Y-63984024D01*
X123015211Y-63972283D01*
X123033594Y-63963762D01*
X123063935Y-63957543D01*
X123111207Y-63952706D01*
X123180385Y-63948331D01*
X123203570Y-63947105D01*
X123305937Y-63941802D01*
X123384185Y-63937082D01*
X123442376Y-63931797D01*
X123484575Y-63924796D01*
X123514846Y-63914931D01*
X123537255Y-63901055D01*
X123555864Y-63882017D01*
X123574739Y-63856670D01*
X123587413Y-63838619D01*
X123616233Y-63794381D01*
X123629900Y-63765571D01*
X123626959Y-63755309D01*
X123610295Y-63757681D01*
X123569274Y-63764396D01*
X123507340Y-63774849D01*
X123427937Y-63788437D01*
X123334511Y-63804557D01*
X123230505Y-63822606D01*
X123119363Y-63841980D01*
X123004531Y-63862075D01*
X122889452Y-63882289D01*
X122777571Y-63902017D01*
X122672332Y-63920656D01*
X122577179Y-63937603D01*
X122495557Y-63952255D01*
X122430911Y-63964007D01*
X122386684Y-63972257D01*
X122371206Y-63975311D01*
X122332628Y-63983346D01*
X122206125Y-63983346D01*
X122182644Y-63957764D01*
X122159172Y-63932293D01*
X122098836Y-63865844D01*
X122092283Y-63858186D01*
X122254835Y-63858186D01*
X122268614Y-63884406D01*
X122290769Y-63909277D01*
X122314318Y-63923493D01*
X122319704Y-63924293D01*
X122342118Y-63920621D01*
X122384840Y-63910348D01*
X122441188Y-63895166D01*
X122489132Y-63881352D01*
X122576102Y-63852736D01*
X122634963Y-63826704D01*
X122663925Y-63805458D01*
X122673807Y-63796662D01*
X122689443Y-63787979D01*
X122713442Y-63778777D01*
X122748412Y-63768418D01*
X122796961Y-63756268D01*
X122861699Y-63741691D01*
X122945233Y-63724052D01*
X123050173Y-63702717D01*
X123179126Y-63677049D01*
X123242802Y-63664483D01*
X123364321Y-63640498D01*
X123477635Y-63618038D01*
X123579646Y-63597726D01*
X123667253Y-63580183D01*
X123737357Y-63566029D01*
X123786857Y-63555887D01*
X123812655Y-63550378D01*
X123815272Y-63549733D01*
X123829626Y-63536541D01*
X123852451Y-63506427D01*
X123879619Y-63466033D01*
X123907001Y-63422001D01*
X123930469Y-63380972D01*
X123945895Y-63349590D01*
X123949149Y-63334496D01*
X123949091Y-63334435D01*
X123948145Y-63333201D01*
X123946523Y-63332386D01*
X123942283Y-63332550D01*
X123933488Y-63334257D01*
X123918195Y-63338068D01*
X123894464Y-63344546D01*
X123860356Y-63354253D01*
X123813930Y-63367752D01*
X123753247Y-63385603D01*
X123676364Y-63408371D01*
X123581344Y-63436617D01*
X123466244Y-63470903D01*
X123329126Y-63511792D01*
X123168048Y-63559845D01*
X123059256Y-63592302D01*
X122915293Y-63635386D01*
X122779369Y-63676325D01*
X122653907Y-63714374D01*
X122541325Y-63748785D01*
X122444045Y-63778813D01*
X122364488Y-63803709D01*
X122305074Y-63822729D01*
X122268224Y-63835124D01*
X122256415Y-63839926D01*
X122254835Y-63858186D01*
X122092283Y-63858186D01*
X122056036Y-63815825D01*
X122028237Y-63778801D01*
X122012905Y-63751338D01*
X122007506Y-63730000D01*
X122007393Y-63726582D01*
X122009236Y-63705615D01*
X122011173Y-63701209D01*
X122092482Y-63701209D01*
X122129780Y-63750108D01*
X122155706Y-63778680D01*
X122177022Y-63792987D01*
X122182538Y-63793236D01*
X122201283Y-63786824D01*
X122241139Y-63773541D01*
X122296378Y-63755289D01*
X122361269Y-63733965D01*
X122365559Y-63732559D01*
X122439936Y-63707221D01*
X122491141Y-63687126D01*
X122523301Y-63670298D01*
X122540541Y-63654760D01*
X122544938Y-63646645D01*
X122547204Y-63639383D01*
X122549317Y-63633188D01*
X122553405Y-63627414D01*
X122561595Y-63621416D01*
X122576017Y-63614550D01*
X122598797Y-63606171D01*
X122632066Y-63595633D01*
X122677950Y-63582292D01*
X122738578Y-63565502D01*
X122816078Y-63544620D01*
X122912580Y-63518999D01*
X123030210Y-63487996D01*
X123171097Y-63450964D01*
X123318740Y-63412159D01*
X123973556Y-63239967D01*
X124034598Y-63127513D01*
X124060912Y-63077535D01*
X124080324Y-63037753D01*
X124090076Y-63013968D01*
X124090489Y-63009907D01*
X124076634Y-63013563D01*
X124038398Y-63025848D01*
X123978027Y-63045991D01*
X123897768Y-63073222D01*
X123799866Y-63106770D01*
X123686568Y-63145864D01*
X123560121Y-63189734D01*
X123422770Y-63237609D01*
X123276762Y-63288718D01*
X123233441Y-63303923D01*
X123080424Y-63357633D01*
X122931625Y-63409810D01*
X122789806Y-63459491D01*
X122657731Y-63505709D01*
X122538163Y-63547499D01*
X122433863Y-63583895D01*
X122347595Y-63613931D01*
X122282122Y-63636643D01*
X122240207Y-63651064D01*
X122237014Y-63652150D01*
X122092482Y-63701209D01*
X122011173Y-63701209D01*
X122017106Y-63687718D01*
X122034514Y-63670731D01*
X122064971Y-63652492D01*
X122111988Y-63630838D01*
X122179076Y-63603610D01*
X122254475Y-63574479D01*
X122323393Y-63548130D01*
X122411713Y-63514374D01*
X122512460Y-63475878D01*
X122618657Y-63435307D01*
X122723326Y-63395327D01*
X122755698Y-63382964D01*
X123000526Y-63289424D01*
X123224667Y-63203706D01*
X123427547Y-63126031D01*
X123608590Y-63056620D01*
X123767221Y-62995694D01*
X123902865Y-62943476D01*
X124014945Y-62900186D01*
X124102887Y-62866047D01*
X124166114Y-62841279D01*
X124204053Y-62826104D01*
X124216136Y-62820794D01*
X124223424Y-62804007D01*
X124236255Y-62768612D01*
X124252306Y-62721699D01*
X124269251Y-62670356D01*
X124284767Y-62621670D01*
X124296528Y-62582732D01*
X124302209Y-62560629D01*
X124302281Y-62558108D01*
X124288962Y-62562924D01*
X124251563Y-62578190D01*
X124191913Y-62603125D01*
X124111841Y-62636950D01*
X124013176Y-62678883D01*
X123897746Y-62728144D01*
X123767381Y-62783952D01*
X123623908Y-62845527D01*
X123469157Y-62912089D01*
X123304957Y-62982856D01*
X123133136Y-63057049D01*
X123120823Y-63062371D01*
X122897696Y-63158993D01*
X122699757Y-63245082D01*
X122526153Y-63321024D01*
X122376030Y-63387204D01*
X122248534Y-63444006D01*
X122142812Y-63491817D01*
X122058009Y-63531020D01*
X121993273Y-63562000D01*
X121947750Y-63585144D01*
X121920585Y-63600836D01*
X121912090Y-63607530D01*
X121885076Y-63658652D01*
X121881981Y-63718646D01*
X121710442Y-63718646D01*
X121689929Y-63625483D01*
X121673079Y-63430358D01*
G37*
G36*
X132466133Y-62986998D02*
G01*
X132907227Y-63418799D01*
X132907227Y-63021123D01*
X132681323Y-63021123D01*
X132681323Y-62555198D01*
X133895554Y-62555198D01*
X133895554Y-63021123D01*
X133640951Y-63021123D01*
X133644711Y-63398805D01*
X133648472Y-63776487D01*
X133750834Y-63780636D01*
X133853197Y-63784784D01*
X133853197Y-64221234D01*
X132862913Y-64221234D01*
X132713195Y-64076515D01*
X132651715Y-64016609D01*
X132589789Y-63955441D01*
X132533972Y-63899538D01*
X132490821Y-63855427D01*
X132484844Y-63849179D01*
X132452572Y-63816221D01*
X132403724Y-63767564D01*
X132342160Y-63706994D01*
X132271742Y-63638297D01*
X132196331Y-63565260D01*
X132141377Y-63512367D01*
X131876543Y-63258172D01*
X131876543Y-63769428D01*
X132130684Y-63769428D01*
X132130684Y-64235353D01*
X130845859Y-64235353D01*
X130845859Y-63784606D01*
X130976460Y-63780547D01*
X131107060Y-63776487D01*
X131110817Y-63391746D01*
X131114573Y-63007004D01*
X130859978Y-63007004D01*
X130859978Y-62555198D01*
X132025040Y-62555198D01*
X132466133Y-62986998D01*
G37*
G36*
X134174403Y-63044141D02*
G01*
X134142696Y-63039350D01*
X134095324Y-63036175D01*
X134061451Y-63035435D01*
X133980267Y-63035242D01*
X133980267Y-62555198D01*
X134739161Y-62555419D01*
X134909281Y-62555554D01*
X135054039Y-62555909D01*
X135176312Y-62556568D01*
X135278975Y-62557615D01*
X135364905Y-62559136D01*
X135436979Y-62561214D01*
X135498071Y-62563935D01*
X135551058Y-62567382D01*
X135598817Y-62571640D01*
X135644223Y-62576793D01*
X135690152Y-62582927D01*
X135693937Y-62583463D01*
X135905131Y-62624399D01*
X136096465Y-62684310D01*
X136267234Y-62762969D01*
X136279554Y-62769821D01*
X136372120Y-62830633D01*
X136463281Y-62906103D01*
X136546758Y-62989947D01*
X136616272Y-63075878D01*
X136664263Y-63154956D01*
X136687191Y-63204327D01*
X136701389Y-63244291D01*
X136708923Y-63284868D01*
X136711859Y-63336076D01*
X136712285Y-63387919D01*
X136711351Y-63454725D01*
X136707256Y-63503313D01*
X136698055Y-63543676D01*
X136681807Y-63585808D01*
X136667977Y-63615861D01*
X136618416Y-63703911D01*
X136556134Y-63782736D01*
X136477373Y-63855811D01*
X136378373Y-63926615D01*
X136255376Y-63998624D01*
X136252504Y-64000177D01*
X136113833Y-64069463D01*
X135983828Y-64121470D01*
X135852010Y-64159675D01*
X135707905Y-64187559D01*
X135672420Y-64192807D01*
X135624798Y-64199203D01*
X135578496Y-64204572D01*
X135530577Y-64209002D01*
X135478103Y-64212581D01*
X135418136Y-64215399D01*
X135347738Y-64217542D01*
X135263971Y-64219099D01*
X135163897Y-64220159D01*
X135044579Y-64220809D01*
X134903078Y-64221138D01*
X134736456Y-64221234D01*
X133980267Y-64221234D01*
X133980267Y-63797666D01*
X134206171Y-63797666D01*
X134206171Y-63260245D01*
X135077700Y-63260245D01*
X135077836Y-63351010D01*
X135078489Y-63429187D01*
X135082491Y-63783547D01*
X135191440Y-63783054D01*
X135264391Y-63779925D01*
X135345765Y-63772266D01*
X135409312Y-63763139D01*
X135535676Y-63730647D01*
X135644408Y-63682110D01*
X135733000Y-63619070D01*
X135798948Y-63543068D01*
X135816928Y-63512319D01*
X135840037Y-63438421D01*
X135838466Y-63360296D01*
X135813548Y-63284704D01*
X135766616Y-63218399D01*
X135757058Y-63209015D01*
X135708096Y-63174337D01*
X135638915Y-63140124D01*
X135557390Y-63109724D01*
X135471392Y-63086489D01*
X135466804Y-63085510D01*
X135401218Y-63073685D01*
X135329626Y-63063991D01*
X135257792Y-63056810D01*
X135191480Y-63052530D01*
X135136453Y-63051533D01*
X135098475Y-63054207D01*
X135083726Y-63059915D01*
X135081347Y-63077614D01*
X135079513Y-63119560D01*
X135078278Y-63181765D01*
X135077700Y-63260245D01*
X134206171Y-63260245D01*
X134206171Y-63052655D01*
X134174403Y-63044141D01*
G37*
G36*
X128050306Y-63007004D02*
G01*
X127725570Y-63007004D01*
X127725570Y-63811785D01*
X127856171Y-63811977D01*
X127929674Y-63811786D01*
X127981916Y-63813688D01*
X128016502Y-63821774D01*
X128037037Y-63840136D01*
X128047127Y-63872867D01*
X128050379Y-63924057D01*
X128050397Y-63997799D01*
X128050306Y-64032275D01*
X128050306Y-64235353D01*
X126723124Y-64235353D01*
X126723124Y-63825904D01*
X126963147Y-63825904D01*
X126963147Y-63543525D01*
X126200723Y-63543525D01*
X126200723Y-63810725D01*
X126331323Y-63814785D01*
X126461924Y-63818844D01*
X126465831Y-64027099D01*
X126469738Y-64235353D01*
X125183403Y-64235353D01*
X125187311Y-64027099D01*
X125191218Y-63818844D01*
X125321818Y-63814785D01*
X125452418Y-63810725D01*
X125452418Y-63410375D01*
X125452265Y-63292301D01*
X125451695Y-63199430D01*
X125450541Y-63128726D01*
X125448640Y-63077155D01*
X125445823Y-63041683D01*
X125441927Y-63019275D01*
X125436785Y-63006896D01*
X125430232Y-63001513D01*
X125430085Y-63001455D01*
X125405894Y-62997381D01*
X125362074Y-62994357D01*
X125307228Y-62992931D01*
X125295578Y-62992885D01*
X125183403Y-62992885D01*
X125187311Y-62784631D01*
X125191218Y-62576376D01*
X126461924Y-62576376D01*
X126465841Y-62777571D01*
X126469759Y-62978766D01*
X126200723Y-62978766D01*
X126200723Y-63148194D01*
X126963147Y-63148194D01*
X126963147Y-62978766D01*
X126764706Y-62978766D01*
X126768623Y-62777571D01*
X126772541Y-62576376D01*
X127411423Y-62572703D01*
X128050306Y-62569029D01*
X128050306Y-63007004D01*
G37*
G36*
X137271783Y-63219306D02*
G01*
X137326135Y-63138869D01*
X137371662Y-63070839D01*
X137406528Y-63017954D01*
X137428902Y-62982951D01*
X137436917Y-62968757D01*
X137432865Y-62961587D01*
X137414364Y-62956459D01*
X137378120Y-62953095D01*
X137320836Y-62951216D01*
X137239219Y-62950543D01*
X137221603Y-62950528D01*
X137001724Y-62950528D01*
X137001724Y-62555198D01*
X137711201Y-62555348D01*
X138420679Y-62555499D01*
X138858366Y-63183463D01*
X139296054Y-63811427D01*
X139461952Y-63811606D01*
X139627849Y-63811785D01*
X139627849Y-64235353D01*
X138046526Y-64235353D01*
X138046526Y-63825904D01*
X138288145Y-63825904D01*
X138238103Y-63741190D01*
X137876243Y-63741190D01*
X137765121Y-63741326D01*
X137678822Y-63741886D01*
X137613930Y-63743099D01*
X137567030Y-63745194D01*
X137534707Y-63748400D01*
X137513546Y-63752945D01*
X137500132Y-63759060D01*
X137491050Y-63766972D01*
X137491016Y-63767010D01*
X137473048Y-63790299D01*
X137467649Y-63802307D01*
X137480817Y-63806116D01*
X137516522Y-63809193D01*
X137569065Y-63811193D01*
X137622958Y-63811785D01*
X137778266Y-63811785D01*
X137778266Y-64235353D01*
X137187623Y-64235353D01*
X137061131Y-64235135D01*
X136943470Y-64234513D01*
X136837625Y-64233532D01*
X136746580Y-64232240D01*
X136673320Y-64230684D01*
X136620831Y-64228910D01*
X136592097Y-64226966D01*
X136587568Y-64225941D01*
X136584149Y-64209112D01*
X136581284Y-64169460D01*
X136579224Y-64112399D01*
X136578215Y-64043342D01*
X136578155Y-64021216D01*
X136578155Y-63825904D01*
X136855507Y-63825904D01*
X137143929Y-63406445D01*
X137166100Y-63374097D01*
X137761710Y-63374097D01*
X137911178Y-63374097D01*
X137972307Y-63373483D01*
X138021352Y-63371821D01*
X138052505Y-63369382D01*
X138060645Y-63367114D01*
X138054865Y-63347501D01*
X138039560Y-63311463D01*
X138017787Y-63265024D01*
X137992601Y-63214209D01*
X137967060Y-63165046D01*
X137944218Y-63123557D01*
X137927131Y-63095770D01*
X137918907Y-63087647D01*
X137908483Y-63104007D01*
X137888031Y-63139751D01*
X137860694Y-63189286D01*
X137835257Y-63236437D01*
X137761710Y-63374097D01*
X137166100Y-63374097D01*
X137210436Y-63309410D01*
X137271783Y-63219306D01*
G37*
D11*
G04 #@! TO.C,BZ1*
X148050000Y-63350000D02*
G75*
G03*
X148050000Y-63350000I-17250000J0D01*
G01*
G04 #@! TD*
M02*
