%TF.GenerationSoftware,KiCad,Pcbnew,(5.99.0-13294-g19fc8c6d98)*%
%TF.CreationDate,2021-11-25T20:45:43+01:00*%
%TF.ProjectId,easyrelay,65617379-7265-46c6-9179-2e6b69636164,rev?*%
%TF.SameCoordinates,Original*%
%TF.FileFunction,Paste,Top*%
%TF.FilePolarity,Positive*%
%FSLAX46Y46*%
G04 Gerber Fmt 4.6, Leading zero omitted, Abs format (unit mm)*
G04 Created by KiCad (PCBNEW (5.99.0-13294-g19fc8c6d98)) date 2021-11-25 20:45:44*
%MOMM*%
%LPD*%
G01*
G04 APERTURE LIST*
G04 Aperture macros list*
%AMRoundRect*
0 Rectangle with rounded corners*
0 $1 Rounding radius*
0 $2 $3 $4 $5 $6 $7 $8 $9 X,Y pos of 4 corners*
0 Add a 4 corners polygon primitive as box body*
4,1,4,$2,$3,$4,$5,$6,$7,$8,$9,$2,$3,0*
0 Add four circle primitives for the rounded corners*
1,1,$1+$1,$2,$3*
1,1,$1+$1,$4,$5*
1,1,$1+$1,$6,$7*
1,1,$1+$1,$8,$9*
0 Add four rect primitives between the rounded corners*
20,1,$1+$1,$2,$3,$4,$5,0*
20,1,$1+$1,$4,$5,$6,$7,0*
20,1,$1+$1,$6,$7,$8,$9,0*
20,1,$1+$1,$8,$9,$2,$3,0*%
G04 Aperture macros list end*
%ADD10RoundRect,0.112500X0.112500X-0.637500X0.112500X0.637500X-0.112500X0.637500X-0.112500X-0.637500X0*%
%ADD11R,3.500000X2.600000*%
%ADD12RoundRect,0.237500X-0.250000X-0.237500X0.250000X-0.237500X0.250000X0.237500X-0.250000X0.237500X0*%
%ADD13RoundRect,0.237500X0.300000X0.237500X-0.300000X0.237500X-0.300000X-0.237500X0.300000X-0.237500X0*%
%ADD14RoundRect,0.237500X0.237500X-0.250000X0.237500X0.250000X-0.237500X0.250000X-0.237500X-0.250000X0*%
%ADD15RoundRect,0.237500X0.237500X-0.300000X0.237500X0.300000X-0.237500X0.300000X-0.237500X-0.300000X0*%
%ADD16RoundRect,0.237500X-0.237500X0.300000X-0.237500X-0.300000X0.237500X-0.300000X0.237500X0.300000X0*%
%ADD17R,0.450000X1.750000*%
%ADD18RoundRect,0.237500X0.250000X0.237500X-0.250000X0.237500X-0.250000X-0.237500X0.250000X-0.237500X0*%
%ADD19R,2.000000X1.500000*%
%ADD20R,2.000000X3.800000*%
%ADD21RoundRect,0.237500X-0.300000X-0.237500X0.300000X-0.237500X0.300000X0.237500X-0.300000X0.237500X0*%
%ADD22RoundRect,0.250000X-0.375000X-0.625000X0.375000X-0.625000X0.375000X0.625000X-0.375000X0.625000X0*%
%ADD23RoundRect,0.250000X-0.625000X0.375000X-0.625000X-0.375000X0.625000X-0.375000X0.625000X0.375000X0*%
G04 APERTURE END LIST*
D10*
%TO.C,U2*%
X156625000Y-91962500D03*
X157275000Y-91962500D03*
X157925000Y-91962500D03*
X158575000Y-91962500D03*
X159225000Y-91962500D03*
X159875000Y-91962500D03*
X160525000Y-91962500D03*
X161175000Y-91962500D03*
X161175000Y-86237500D03*
X160525000Y-86237500D03*
X159875000Y-86237500D03*
X159225000Y-86237500D03*
X158575000Y-86237500D03*
X157925000Y-86237500D03*
X157275000Y-86237500D03*
X156625000Y-86237500D03*
%TD*%
D11*
%TO.C,BT1*%
X129638000Y-86410000D03*
X129638000Y-65310000D03*
%TD*%
D12*
%TO.C,R2*%
X119073500Y-66961000D03*
X120898500Y-66961000D03*
%TD*%
D13*
%TO.C,C18*%
X116276500Y-115094000D03*
X114551500Y-115094000D03*
%TD*%
D14*
%TO.C,R8*%
X151650000Y-91612500D03*
X151650000Y-89787500D03*
%TD*%
D13*
%TO.C,C4*%
X125610000Y-101120000D03*
X123885000Y-101120000D03*
%TD*%
D15*
%TO.C,C5*%
X125180000Y-93822500D03*
X125180000Y-92097500D03*
%TD*%
D16*
%TO.C,C2*%
X161840000Y-108287500D03*
X161840000Y-110012500D03*
%TD*%
D17*
%TO.C,U9*%
X140575000Y-103800000D03*
X141225000Y-103800000D03*
X141875000Y-103800000D03*
X142525000Y-103800000D03*
X143175000Y-103800000D03*
X143825000Y-103800000D03*
X144475000Y-103800000D03*
X145125000Y-103800000D03*
X145775000Y-103800000D03*
X146425000Y-103800000D03*
X147075000Y-103800000D03*
X147725000Y-103800000D03*
X148375000Y-103800000D03*
X149025000Y-103800000D03*
X149025000Y-96600000D03*
X148375000Y-96600000D03*
X147725000Y-96600000D03*
X147075000Y-96600000D03*
X146425000Y-96600000D03*
X145775000Y-96600000D03*
X145125000Y-96600000D03*
X144475000Y-96600000D03*
X143825000Y-96600000D03*
X143175000Y-96600000D03*
X142525000Y-96600000D03*
X141875000Y-96600000D03*
X141225000Y-96600000D03*
X140575000Y-96600000D03*
%TD*%
D14*
%TO.C,R3*%
X164100009Y-93312489D03*
X164100009Y-91487489D03*
%TD*%
D18*
%TO.C,RV2*%
X119412500Y-95410000D03*
X117587500Y-95410000D03*
%TD*%
D19*
%TO.C,U3*%
X129282000Y-93744000D03*
D20*
X135582000Y-96044000D03*
D19*
X129282000Y-96044000D03*
X129282000Y-98344000D03*
%TD*%
D13*
%TO.C,C13*%
X115259834Y-86392000D03*
X113534834Y-86392000D03*
%TD*%
%TO.C,C14*%
X115332500Y-88500000D03*
X113607500Y-88500000D03*
%TD*%
D21*
%TO.C,C10*%
X113536166Y-81058000D03*
X115261166Y-81058000D03*
%TD*%
%TO.C,C12*%
X164589500Y-81820000D03*
X166314500Y-81820000D03*
%TD*%
D10*
%TO.C,U5*%
X142625000Y-91962500D03*
X143275000Y-91962500D03*
X143925000Y-91962500D03*
X144575000Y-91962500D03*
X145225000Y-91962500D03*
X145875000Y-91962500D03*
X146525000Y-91962500D03*
X147175000Y-91962500D03*
X147175000Y-86237500D03*
X146525000Y-86237500D03*
X145875000Y-86237500D03*
X145225000Y-86237500D03*
X144575000Y-86237500D03*
X143925000Y-86237500D03*
X143275000Y-86237500D03*
X142625000Y-86237500D03*
%TD*%
D13*
%TO.C,C15*%
X166314500Y-83819531D03*
X164589500Y-83819531D03*
%TD*%
D22*
%TO.C,F1*%
X112200000Y-60300000D03*
X115000000Y-60300000D03*
%TD*%
D18*
%TO.C,R1*%
X120898500Y-64548000D03*
X119073500Y-64548000D03*
%TD*%
D21*
%TO.C,C16*%
X114551500Y-110894000D03*
X116276500Y-110894000D03*
%TD*%
%TO.C,C17*%
X114551500Y-112994000D03*
X116276500Y-112994000D03*
%TD*%
D13*
%TO.C,C9*%
X154262500Y-61432000D03*
X152537500Y-61432000D03*
%TD*%
D21*
%TO.C,C8*%
X152537500Y-63532000D03*
X154262500Y-63532000D03*
%TD*%
%TO.C,C11*%
X113535500Y-83852000D03*
X115260500Y-83852000D03*
%TD*%
D18*
%TO.C,RV1*%
X114548500Y-64548000D03*
X112723500Y-64548000D03*
%TD*%
D17*
%TO.C,U4*%
X156575000Y-103800000D03*
X157225000Y-103800000D03*
X157875000Y-103800000D03*
X158525000Y-103800000D03*
X159175000Y-103800000D03*
X159825000Y-103800000D03*
X160475000Y-103800000D03*
X161125000Y-103800000D03*
X161775000Y-103800000D03*
X162425000Y-103800000D03*
X163075000Y-103800000D03*
X163725000Y-103800000D03*
X164375000Y-103800000D03*
X165025000Y-103800000D03*
X165025000Y-96600000D03*
X164375000Y-96600000D03*
X163725000Y-96600000D03*
X163075000Y-96600000D03*
X162425000Y-96600000D03*
X161775000Y-96600000D03*
X161125000Y-96600000D03*
X160475000Y-96600000D03*
X159825000Y-96600000D03*
X159175000Y-96600000D03*
X158525000Y-96600000D03*
X157875000Y-96600000D03*
X157225000Y-96600000D03*
X156575000Y-96600000D03*
%TD*%
D21*
%TO.C,C3*%
X119123500Y-69374000D03*
X120848500Y-69374000D03*
%TD*%
%TO.C,C19*%
X114551500Y-117194000D03*
X116276500Y-117194000D03*
%TD*%
D23*
%TO.C,F2*%
X119600000Y-77400000D03*
X119600000Y-80200000D03*
%TD*%
D13*
%TO.C,C7*%
X144442500Y-107180000D03*
X142717500Y-107180000D03*
%TD*%
D14*
%TO.C,RV3*%
X157700000Y-54812500D03*
X157700000Y-52987500D03*
%TD*%
M02*
