%TF.GenerationSoftware,KiCad,Pcbnew,(5.99.0-13294-g19fc8c6d98)*%
%TF.CreationDate,2021-11-25T20:45:44+01:00*%
%TF.ProjectId,easyrelay,65617379-7265-46c6-9179-2e6b69636164,rev?*%
%TF.SameCoordinates,Original*%
%TF.FileFunction,Soldermask,Bot*%
%TF.FilePolarity,Negative*%
%FSLAX46Y46*%
G04 Gerber Fmt 4.6, Leading zero omitted, Abs format (unit mm)*
G04 Created by KiCad (PCBNEW (5.99.0-13294-g19fc8c6d98)) date 2021-11-25 20:45:44*
%MOMM*%
%LPD*%
G01*
G04 APERTURE LIST*
G04 Aperture macros list*
%AMRoundRect*
0 Rectangle with rounded corners*
0 $1 Rounding radius*
0 $2 $3 $4 $5 $6 $7 $8 $9 X,Y pos of 4 corners*
0 Add a 4 corners polygon primitive as box body*
4,1,4,$2,$3,$4,$5,$6,$7,$8,$9,$2,$3,0*
0 Add four circle primitives for the rounded corners*
1,1,$1+$1,$2,$3*
1,1,$1+$1,$4,$5*
1,1,$1+$1,$6,$7*
1,1,$1+$1,$8,$9*
0 Add four rect primitives between the rounded corners*
20,1,$1+$1,$2,$3,$4,$5,0*
20,1,$1+$1,$4,$5,$6,$7,0*
20,1,$1+$1,$6,$7,$8,$9,0*
20,1,$1+$1,$8,$9,$2,$3,0*%
G04 Aperture macros list end*
%ADD10R,1.700000X1.700000*%
%ADD11C,3.200000*%
%ADD12O,1.700000X1.700000*%
%ADD13R,2.400000X2.400000*%
%ADD14O,2.400000X2.400000*%
%ADD15RoundRect,0.250000X0.600000X0.725000X-0.600000X0.725000X-0.600000X-0.725000X0.600000X-0.725000X0*%
%ADD16O,1.700000X1.950000*%
%ADD17RoundRect,0.250000X-0.600000X-0.725000X0.600000X-0.725000X0.600000X0.725000X-0.600000X0.725000X0*%
%ADD18R,1.800000X1.450000*%
%ADD19R,1.800000X1.500000*%
%ADD20C,1.000000*%
%ADD21R,1.000000X1.600000*%
%ADD22R,2.300000X1.780000*%
%ADD23RoundRect,0.237500X-0.300000X-0.237500X0.300000X-0.237500X0.300000X0.237500X-0.300000X0.237500X0*%
%ADD24RoundRect,0.237500X-0.250000X-0.237500X0.250000X-0.237500X0.250000X0.237500X-0.250000X0.237500X0*%
%ADD25RoundRect,0.150000X-0.150000X0.825000X-0.150000X-0.825000X0.150000X-0.825000X0.150000X0.825000X0*%
%ADD26R,3.000000X3.000000*%
%ADD27C,3.000000*%
%ADD28RoundRect,0.250000X-0.375000X-0.625000X0.375000X-0.625000X0.375000X0.625000X-0.375000X0.625000X0*%
%ADD29RoundRect,0.237500X-0.237500X0.250000X-0.237500X-0.250000X0.237500X-0.250000X0.237500X0.250000X0*%
%ADD30C,2.300000*%
%ADD31R,2.000000X2.000000*%
%ADD32C,2.000000*%
%ADD33R,2.000000X1.905000*%
%ADD34O,2.000000X1.905000*%
%ADD35RoundRect,0.237500X0.250000X0.237500X-0.250000X0.237500X-0.250000X-0.237500X0.250000X-0.237500X0*%
%ADD36R,1.560000X0.650000*%
G04 APERTURE END LIST*
D10*
%TO.C,TPGND*%
X107900000Y-60300000D03*
%TD*%
%TO.C,TP5V*%
X114652000Y-93504000D03*
%TD*%
%TO.C,TP3V3*%
X114652000Y-96933000D03*
%TD*%
%TO.C,TPRPM*%
X114652000Y-100362000D03*
%TD*%
%TO.C,TPBAT*%
X114652000Y-103791000D03*
%TD*%
%TO.C,TPACC*%
X114652000Y-107220000D03*
%TD*%
%TO.C,J3*%
X144800000Y-59722000D03*
%TD*%
%TO.C,TPCUR*%
X166900000Y-72600000D03*
%TD*%
D11*
%TO.C,H4*%
X164000000Y-121000000D03*
%TD*%
D10*
%TO.C,J4*%
X108250000Y-76030000D03*
D12*
X110790000Y-76030000D03*
X108250000Y-78570000D03*
X110790000Y-78570000D03*
X108250000Y-81110000D03*
X110790000Y-81110000D03*
X108250000Y-83650000D03*
X110790000Y-83650000D03*
X108250000Y-86190000D03*
X110790000Y-86190000D03*
X108250000Y-88730000D03*
X110790000Y-88730000D03*
X108250000Y-91270000D03*
X110790000Y-91270000D03*
X108250000Y-93810000D03*
X110790000Y-93810000D03*
X108250000Y-96350000D03*
X110790000Y-96350000D03*
X108250000Y-98890000D03*
X110790000Y-98890000D03*
X108250000Y-101430000D03*
X110790000Y-101430000D03*
X108250000Y-103970000D03*
X110790000Y-103970000D03*
X108250000Y-106510000D03*
X110790000Y-106510000D03*
X108250000Y-109050000D03*
X110790000Y-109050000D03*
X108250000Y-111590000D03*
X110790000Y-111590000D03*
X108250000Y-114130000D03*
X110790000Y-114130000D03*
X108250000Y-116670000D03*
X110790000Y-116670000D03*
X108250000Y-119210000D03*
X110790000Y-119210000D03*
X108250000Y-121750000D03*
X110790000Y-121750000D03*
%TD*%
D11*
%TO.C,H3*%
X115500000Y-121000000D03*
%TD*%
%TO.C,H2*%
X171000000Y-71500000D03*
%TD*%
D13*
%TO.C,D2*%
X120300000Y-97850000D03*
D14*
X120300000Y-110550000D03*
%TD*%
D15*
%TO.C,J5*%
X157500000Y-115000000D03*
D16*
X155000000Y-115000000D03*
X152500000Y-115000000D03*
X150000000Y-115000000D03*
X147500000Y-115000000D03*
X145000000Y-115000000D03*
X142500000Y-115000000D03*
X140000000Y-115000000D03*
X137500000Y-115000000D03*
X135000000Y-115000000D03*
X132500000Y-115000000D03*
X130000000Y-115000000D03*
X127500000Y-115000000D03*
X125000000Y-115000000D03*
X122500000Y-115000000D03*
%TD*%
D10*
%TO.C,J6*%
X169210000Y-76030000D03*
D12*
X171750000Y-76030000D03*
X169210000Y-78570000D03*
X171750000Y-78570000D03*
X169210000Y-81110000D03*
X171750000Y-81110000D03*
X169210000Y-83650000D03*
X171750000Y-83650000D03*
X169210000Y-86190000D03*
X171750000Y-86190000D03*
X169210000Y-88730000D03*
X171750000Y-88730000D03*
X169210000Y-91270000D03*
X171750000Y-91270000D03*
X169210000Y-93810000D03*
X171750000Y-93810000D03*
X169210000Y-96350000D03*
X171750000Y-96350000D03*
X169210000Y-98890000D03*
X171750000Y-98890000D03*
X169210000Y-101430000D03*
X171750000Y-101430000D03*
X169210000Y-103970000D03*
X171750000Y-103970000D03*
X169210000Y-106510000D03*
X171750000Y-106510000D03*
X169210000Y-109050000D03*
X171750000Y-109050000D03*
X169210000Y-111590000D03*
X171750000Y-111590000D03*
X169210000Y-114130000D03*
X171750000Y-114130000D03*
X169210000Y-116670000D03*
X171750000Y-116670000D03*
X169210000Y-119210000D03*
X171750000Y-119210000D03*
X169210000Y-121750000D03*
X171750000Y-121750000D03*
%TD*%
D17*
%TO.C,J2*%
X109600000Y-55000000D03*
D16*
X112100000Y-55000000D03*
X114600000Y-55000000D03*
X117100000Y-55000000D03*
X119600000Y-55000000D03*
X122100000Y-55000000D03*
X124600000Y-55000000D03*
X127100000Y-55000000D03*
X129600000Y-55000000D03*
X132100000Y-55000000D03*
X134600000Y-55000000D03*
X137100000Y-55000000D03*
X139600000Y-55000000D03*
X142100000Y-55000000D03*
X144600000Y-55000000D03*
%TD*%
D11*
%TO.C,H1*%
X115500000Y-76000000D03*
%TD*%
D18*
%TO.C,K1*%
X162133333Y-71200000D03*
D19*
X162133333Y-69250000D03*
D20*
X159433333Y-69700000D03*
X157033333Y-69700000D03*
D19*
X154333333Y-69250000D03*
D18*
X154333333Y-71200000D03*
D19*
X154333333Y-73150000D03*
D21*
X157033333Y-73100000D03*
X159433333Y-73100000D03*
D19*
X162133333Y-73150000D03*
%TD*%
D22*
%TO.C,U7*%
X137319000Y-106458000D03*
X137319000Y-103918000D03*
X146849000Y-103918000D03*
X146849000Y-106458000D03*
%TD*%
D18*
%TO.C,K11*%
X147800000Y-96700000D03*
D19*
X147800000Y-94750000D03*
D20*
X145100000Y-95200000D03*
X142700000Y-95200000D03*
D19*
X140000000Y-94750000D03*
D18*
X140000000Y-96700000D03*
D19*
X140000000Y-98650000D03*
D21*
X142700000Y-98600000D03*
X145100000Y-98600000D03*
D19*
X147800000Y-98650000D03*
%TD*%
D18*
%TO.C,K4*%
X162133333Y-79700000D03*
D19*
X162133333Y-77750000D03*
D20*
X159433333Y-78200000D03*
X157033333Y-78200000D03*
D19*
X154333333Y-77750000D03*
D18*
X154333333Y-79700000D03*
D19*
X154333333Y-81650000D03*
D21*
X157033333Y-81600000D03*
X159433333Y-81600000D03*
D19*
X162133333Y-81650000D03*
%TD*%
D23*
%TO.C,C6*%
X130553500Y-105950000D03*
X132278500Y-105950000D03*
%TD*%
D18*
%TO.C,K6*%
X133466667Y-79700000D03*
D19*
X133466667Y-77750000D03*
D20*
X130766667Y-78200000D03*
X128366667Y-78200000D03*
D19*
X125666667Y-77750000D03*
D18*
X125666667Y-79700000D03*
D19*
X125666667Y-81650000D03*
D21*
X128366667Y-81600000D03*
X130766667Y-81600000D03*
D19*
X133466667Y-81650000D03*
%TD*%
D24*
%TO.C,R7*%
X130487500Y-108100000D03*
X132312500Y-108100000D03*
%TD*%
D25*
%TO.C,U8*%
X157195000Y-59825000D03*
X158465000Y-59825000D03*
X159735000Y-59825000D03*
X161005000Y-59825000D03*
X161005000Y-64775000D03*
X159735000Y-64775000D03*
X158465000Y-64775000D03*
X157195000Y-64775000D03*
%TD*%
D26*
%TO.C,J1*%
X151387500Y-50000000D03*
D27*
X156467500Y-50000000D03*
X161547500Y-50000000D03*
%TD*%
D18*
%TO.C,K8*%
X147800000Y-88200000D03*
D19*
X147800000Y-86250000D03*
D20*
X145100000Y-86700000D03*
X142700000Y-86700000D03*
D19*
X140000000Y-86250000D03*
D18*
X140000000Y-88200000D03*
D19*
X140000000Y-90150000D03*
D21*
X142700000Y-90100000D03*
X145100000Y-90100000D03*
D19*
X147800000Y-90150000D03*
%TD*%
D18*
%TO.C,K9*%
X133466667Y-88200000D03*
D19*
X133466667Y-86250000D03*
D20*
X130766667Y-86700000D03*
X128366667Y-86700000D03*
D19*
X125666667Y-86250000D03*
D18*
X125666667Y-88200000D03*
D19*
X125666667Y-90150000D03*
D21*
X128366667Y-90100000D03*
X130766667Y-90100000D03*
D19*
X133466667Y-90150000D03*
%TD*%
D18*
%TO.C,K2*%
X147800000Y-71200000D03*
D19*
X147800000Y-69250000D03*
D20*
X145100000Y-69700000D03*
X142700000Y-69700000D03*
D19*
X140000000Y-69250000D03*
D18*
X140000000Y-71200000D03*
D19*
X140000000Y-73150000D03*
D21*
X142700000Y-73100000D03*
X145100000Y-73100000D03*
D19*
X147800000Y-73150000D03*
%TD*%
D18*
%TO.C,K12*%
X133466667Y-96700000D03*
D19*
X133466667Y-94750000D03*
D20*
X130766667Y-95200000D03*
X128366667Y-95200000D03*
D19*
X125666667Y-94750000D03*
D18*
X125666667Y-96700000D03*
D19*
X125666667Y-98650000D03*
D21*
X128366667Y-98600000D03*
X130766667Y-98600000D03*
D19*
X133466667Y-98650000D03*
%TD*%
D18*
%TO.C,K10*%
X162133333Y-96700000D03*
D19*
X162133333Y-94750000D03*
D20*
X159433333Y-95200000D03*
X157033333Y-95200000D03*
D19*
X154333333Y-94750000D03*
D18*
X154333333Y-96700000D03*
D19*
X154333333Y-98650000D03*
D21*
X157033333Y-98600000D03*
X159433333Y-98600000D03*
D19*
X162133333Y-98650000D03*
%TD*%
D28*
%TO.C,F3*%
X153000000Y-56700000D03*
X155800000Y-56700000D03*
%TD*%
D29*
%TO.C,R6*%
X120240000Y-105291500D03*
X120240000Y-107116500D03*
%TD*%
D30*
%TO.C,K13*%
X166862500Y-66425000D03*
X166862500Y-54925000D03*
X166862500Y-47925000D03*
X171562500Y-66425000D03*
%TD*%
D31*
%TO.C,C1*%
X113467677Y-67800000D03*
D32*
X108467677Y-67800000D03*
%TD*%
D18*
%TO.C,K3*%
X133466667Y-71200000D03*
D19*
X133466667Y-69250000D03*
D20*
X130766667Y-69700000D03*
X128366667Y-69700000D03*
D19*
X125666667Y-69250000D03*
D18*
X125666667Y-71200000D03*
D19*
X125666667Y-73150000D03*
D21*
X128366667Y-73100000D03*
X130766667Y-73100000D03*
D19*
X133466667Y-73150000D03*
%TD*%
D33*
%TO.C,U1*%
X119450000Y-83600000D03*
D34*
X119450000Y-86140000D03*
X119450000Y-88680000D03*
%TD*%
D13*
%TO.C,D1*%
X119478000Y-73050000D03*
D14*
X119478000Y-60350000D03*
%TD*%
D18*
%TO.C,K5*%
X147800000Y-79700000D03*
D19*
X147800000Y-77750000D03*
D20*
X145100000Y-78200000D03*
X142700000Y-78200000D03*
D19*
X140000000Y-77750000D03*
D18*
X140000000Y-79700000D03*
D19*
X140000000Y-81650000D03*
D21*
X142700000Y-81600000D03*
X145100000Y-81600000D03*
D19*
X147800000Y-81650000D03*
%TD*%
D29*
%TO.C,R4*%
X120240000Y-101227500D03*
X120240000Y-103052500D03*
%TD*%
D35*
%TO.C,R5*%
X132328500Y-103918000D03*
X130503500Y-103918000D03*
%TD*%
D18*
%TO.C,K7*%
X162133334Y-88200000D03*
D19*
X162133334Y-86250000D03*
D20*
X159433334Y-86700000D03*
X157033334Y-86700000D03*
D19*
X154333334Y-86250000D03*
D18*
X154333334Y-88200000D03*
D19*
X154333334Y-90150000D03*
D21*
X157033334Y-90100000D03*
X159433334Y-90100000D03*
D19*
X162133334Y-90150000D03*
%TD*%
D36*
%TO.C,U6*%
X125240000Y-105884000D03*
X125240000Y-104934000D03*
X125240000Y-103984000D03*
X127940000Y-103984000D03*
X127940000Y-105884000D03*
%TD*%
M02*
