M48
; DRILL file {KiCad (5.99.0-13294-g19fc8c6d98)} date Thu 25 Nov 2021 08:46:08 PM CET
; FORMAT={-:-/ absolute / inch / decimal}
; #@! TF.CreationDate,2021-11-25T20:46:08+01:00
; #@! TF.GenerationSoftware,Kicad,Pcbnew,(5.99.0-13294-g19fc8c6d98)
; #@! TF.FileFunction,MixedPlating,1,4
FMAT,2
INCH
; #@! TA.AperFunction,Plated,PTH,ViaDrill
T1C0.0157
; #@! TA.AperFunction,Plated,PTH,ViaDrill
T2C0.0160
; #@! TA.AperFunction,Plated,PTH,ViaDrill
T3C0.0200
; #@! TA.AperFunction,Plated,PTH,ViaDrill
T4C0.0300
; #@! TA.AperFunction,Plated,PTH,ComponentDrill
T5C0.0394
; #@! TA.AperFunction,Plated,PTH,ComponentDrill
T6C0.0433
; #@! TA.AperFunction,Plated,PTH,ComponentDrill
T7C0.0472
; #@! TA.AperFunction,Plated,PTH,ComponentDrill
T8C0.0598
; #@! TA.AperFunction,NonPlated,NPTH,ComponentDrill
T9C0.1260
%
G90
G05
T1
X6.2139Y-2.2013
T2
X4.3776Y-2.5413
X4.5047Y-3.5512
X4.5984Y-2.7874
X4.6Y-3.5205
X4.6295Y-3.6992
X4.7287Y-2.7846
X4.924Y-4.3835
X5.0551Y-2.9764
X5.0551Y-3.2795
X5.2283Y-3.2835
X5.2752Y-3.3217
X5.3016Y-4.0732
X5.3343Y-4.0268
X5.4062Y-4.0205
X5.4449Y-3.6142
X5.4882Y-3.647
X5.5274Y-4.2195
X5.5274Y-4.2706
X5.5673Y-4.2197
X5.6496Y-2.9882
X5.6496Y-3.3031
X5.6701Y-4.2744
X5.7151Y-4.2746
X5.765Y-4.0043
X5.7953Y-3.3031
X5.8409Y-3.6209
X5.8543Y-3.9882
X5.8638Y-2.4319
X5.878Y-4.2283
X5.8898Y-4.1614
X5.8904Y-2.4585
X5.8933Y-2.5327
X5.8933Y-2.5709
X5.902Y-3.724
X5.9035Y-3.5161
X5.9039Y-3.678
X5.9173Y-2.4854
X5.9213Y-4.2244
X5.9252Y-4.1063
X5.9331Y-4.0236
X5.9626Y-4.2225
X6.0079Y-4.2244
X6.051Y-2.5719
X6.0512Y-4.2283
X6.0516Y-2.3516
X6.072Y-3.6228
X6.0827Y-4.1969
X6.0935Y-2.5719
X6.1575Y-2.9921
X6.2323Y-2.9724
X6.2339Y-2.7113
X6.2402Y-2.4764
X6.283Y-2.0861
X6.3138Y-3.9555
X6.3465Y-2.9764
X6.3543Y-3.9555
X6.3717Y-4.4211
X6.372Y-4.3846
X6.4091Y-4.1665
X6.4316Y-4.2633
X6.4346Y-4.1921
X6.4657Y-3.8756
X6.4688Y-4.2638
X6.5031Y-4.2075
X6.5236Y-3.9134
X6.5323Y-3.5138
X6.5406Y-3.0764
X6.5406Y-3.122
X6.5433Y-2.9331
X6.5433Y-3.0
X6.552Y-3.3614
X6.5587Y-3.4874
X6.563Y-3.9528
X6.563Y-4.0039
X6.578Y-3.4162
T3
X4.4508Y-4.6146
X4.4543Y-4.5634
X4.5354Y-3.5819
X4.6138Y-3.1992
X4.6294Y-3.8638
X4.6419Y-3.9309
X4.6639Y-4.1213
X4.7902Y-3.5413
X4.7986Y-4.1525
X4.8185Y-3.6012
X4.8185Y-3.6472
X4.8358Y-3.5413
X4.8386Y-4.2177
X4.8502Y-4.1313
X4.8839Y-4.2437
X4.8858Y-3.3268
X4.9378Y-4.2437
X4.9717Y-2.5713
X4.9816Y-3.6259
X4.9848Y-4.2258
X5.0281Y-3.6329
X5.0933Y-3.9421
X5.2795Y-4.2051
X5.3937Y-2.7165
X5.4316Y-2.9882
X5.5739Y-2.9813
X5.6639Y-2.7113
X6.0039Y-2.9713
X6.0939Y-3.3113
X6.1614Y-3.3071
X6.2323Y-3.311
T4
X4.248Y-2.5197
T5
X4.248Y-2.374
X4.2618Y-2.9933
X4.2618Y-3.0933
X4.2618Y-3.1933
X4.2618Y-3.2933
X4.2618Y-3.3933
X4.2618Y-3.4933
X4.2618Y-3.5933
X4.2618Y-3.6933
X4.2618Y-3.7933
X4.2618Y-3.8933
X4.2618Y-3.9933
X4.2618Y-4.0933
X4.2618Y-4.1933
X4.2618Y-4.2933
X4.2618Y-4.3933
X4.2618Y-4.4933
X4.2618Y-4.5933
X4.2618Y-4.6933
X4.2618Y-4.7933
X4.2704Y-2.6693
X4.315Y-2.1654
X4.3618Y-2.9933
X4.3618Y-3.0933
X4.3618Y-3.1933
X4.3618Y-3.2933
X4.3618Y-3.3933
X4.3618Y-3.4933
X4.3618Y-3.5933
X4.3618Y-3.6933
X4.3618Y-3.7933
X4.3618Y-3.8933
X4.3618Y-3.9933
X4.3618Y-4.0933
X4.3618Y-4.1933
X4.3618Y-4.2933
X4.3618Y-4.3933
X4.3618Y-4.4933
X4.3618Y-4.5933
X4.3618Y-4.6933
X4.3618Y-4.7933
X4.4134Y-2.1654
X4.4672Y-2.6693
X4.5118Y-2.1654
X4.5139Y-3.6813
X4.5139Y-3.8163
X4.5139Y-3.9513
X4.5139Y-4.0863
X4.5139Y-4.2213
X4.6102Y-2.1654
X4.7087Y-2.1654
X4.8071Y-2.1654
X4.8228Y-4.5276
X4.9055Y-2.1654
X4.9213Y-4.5276
X5.0039Y-2.1654
X5.0197Y-4.5276
X5.1024Y-2.1654
X5.1181Y-4.5276
X5.2008Y-2.1654
X5.2165Y-4.5276
X5.2992Y-2.1654
X5.315Y-4.5276
X5.3976Y-2.1654
X5.4134Y-4.5276
X5.4961Y-2.1654
X5.5118Y-4.5276
X5.5945Y-2.1654
X5.6102Y-4.5276
X5.6929Y-2.1654
X5.7008Y-2.3513
X5.7087Y-4.5276
X5.8071Y-4.5276
X5.9055Y-4.5276
X6.0039Y-4.5276
X6.1024Y-4.5276
X6.2008Y-4.5276
X6.5709Y-2.8583
X6.6618Y-2.9933
X6.6618Y-3.0933
X6.6618Y-3.1933
X6.6618Y-3.2933
X6.6618Y-3.3933
X6.6618Y-3.4933
X6.6618Y-3.5933
X6.6618Y-3.6933
X6.6618Y-3.7933
X6.6618Y-3.8933
X6.6618Y-3.9933
X6.6618Y-4.0933
X6.6618Y-4.1933
X6.6618Y-4.2933
X6.6618Y-4.3933
X6.6618Y-4.4933
X6.6618Y-4.5933
X6.6618Y-4.6933
X6.6618Y-4.7933
X6.7618Y-2.9933
X6.7618Y-3.0933
X6.7618Y-3.1933
X6.7618Y-3.2933
X6.7618Y-3.3933
X6.7618Y-3.4933
X6.7618Y-3.5933
X6.7618Y-3.6933
X6.7618Y-3.7933
X6.7618Y-3.8933
X6.7618Y-3.9933
X6.7618Y-4.0933
X6.7618Y-4.1933
X6.7618Y-4.2933
X6.7618Y-4.3933
X6.7618Y-4.4933
X6.7618Y-4.5933
X6.7618Y-4.6933
X6.7618Y-4.7933
T6
X4.7028Y-3.2913
X4.7028Y-3.3913
X4.7028Y-3.4913
X6.5694Y-1.8868
X6.5694Y-2.1624
X6.5694Y-2.6152
X6.7544Y-2.6152
T7
X4.7039Y-2.376
X4.7039Y-2.876
X4.7362Y-3.8524
X4.7362Y-4.3524
T8
X5.9601Y-1.9685
X6.1601Y-1.9685
X6.3601Y-1.9685
T9
X4.5472Y-2.9921
X4.5472Y-4.7638
X6.4567Y-4.7638
X6.7323Y-2.815
T0
M30
